<svg width="33px" height="33px" viewBox="0 0 33 33" version="1.1" xmlns="http://www.w3.org/2000/svg" xmlns:xlink="http://www.w3.org/1999/xlink">
    <!-- Generator: Sketch 45 (43475) - http://www.bohemiancoding.com/sketch -->
    <desc>Created with Sketch.</desc>
    <defs>
        <polygon id="path-1" points="0.00505518775 0.0707726286 0.00505518775 32.1004422 32.0296696 32.1004422 32.0296696 0.0707726286 0.00505518775 0.0707726286"></polygon>
    </defs>
    <g id="Page-1" stroke="none" stroke-width="1" fill="none" fill-rule="evenodd">
        <g id="Fatherline_desktop" transform="translate(-42.000000, -66.000000)">
            <g id="cancel" transform="translate(42.000000, 66.000000)">
                <g id="Group-3">
                    <mask id="mask-2" fill="white">
                        <use xlink:href="#path-1"></use>
                    </mask>
                    <g id="Clip-2"></g>
                    <path d="M27.3384554,4.76198686 C24.3119987,1.73578297 20.2948095,0.0707726286 16.0146663,0.0707726286 C11.7348601,0.0707726286 7.71775514,1.73578297 4.69121424,4.76198686 C1.66501034,7.78852777 0,11.8056327 0,16.0854389 C0,20.3655821 1.66501034,24.3827713 4.69121424,27.409228 C7.71775514,30.4354319 11.7348601,32.1004422 16.0146663,32.1004422 C20.2948095,32.1004422 24.3119987,30.4354319 27.3384554,27.409228 C30.3646593,24.3827713 32.0296696,20.3655821 32.0296696,16.0854389 C32.0296696,11.8056327 30.3646593,7.78852777 27.3384554,4.76198686 Z M26.0509833,26.1217559 C23.3683637,28.8043756 19.8027712,30.2804904 16.0146663,30.2804904 C12.2268984,30.2804904 8.66130594,28.8043756 5.9786863,26.1217559 C0.444940776,20.5880947 0.444940776,11.5832045 5.9786863,6.04945893 C8.66130594,3.3668393 12.2268984,1.89080873 16.0146663,1.89080873 C19.8027712,1.89080873 23.3683637,3.3668393 26.0509833,6.04945893 C31.5847288,11.5832045 31.5847288,20.5880947 26.0509833,26.1217559 Z" id="Fill-1" fill="#FFFFFF" mask="url(#mask-2)"></path>
                </g>
                <path d="M23.0718769,9.02856533 C22.7148121,8.67116356 22.1418066,8.67116356 21.7844048,9.02856533 L16.0146663,14.7983039 L10.245349,9.02856533 C9.88786299,8.67116356 9.31494172,8.67116356 8.9577927,9.02856533 C8.60039093,9.38571434 8.60039093,9.95863562 8.9577927,10.3161217 L14.7275312,16.0854389 L8.9577927,21.8551775 C8.60039093,22.2125792 8.60039093,22.7855848 8.9577927,23.1426495 C9.1328707,23.3180646 9.36886372,23.4121753 9.59828499,23.4121753 C9.82736925,23.4121753 10.063278,23.3246363 10.2384403,23.1426495 L16.0080946,17.372911 L21.7777488,23.1426495 C21.9529111,23.3180646 22.1888199,23.4121753 22.4179041,23.4121753 C22.6538971,23.4121753 22.8833184,23.3246363 23.0583964,23.1426495 C23.4157982,22.7855848 23.4157982,22.2125792 23.0583964,21.8551775 L17.3021384,16.0854389 L23.0718769,10.3161217 C23.4289417,9.95863562 23.4289417,9.38571434 23.0718769,9.02856533 Z" id="Fill-4" fill="#FFFFFF"></path>
            </g>
        </g>
    </g>
</svg>