
<svg width="169px" height="46px" viewBox="0 0 169 46" version="1.1" xmlns="http://www.w3.org/2000/svg" xmlns:xlink="http://www.w3.org/1999/xlink">
    <!-- Generator: Sketch 45 (43475) - http://www.bohemiancoding.com/sketch -->
    <desc>Created with Sketch.</desc>
    <defs>
        <polygon id="path-1" points="0.0474653219 0.311298588 0.0474653219 35.6364622 35.8250146 35.6364622 35.8250146 0.311298588"></polygon>
    </defs>
    <g id="Page-1" stroke="none" stroke-width="1" fill="none" fill-rule="evenodd">
        <g id="Fatherline_desktop" transform="translate(-124.000000, -22.000000)">
            <g id="desktop_logo" transform="translate(124.000000, 22.000000)">
                <path d="M20.6639313,42.7796052 C20.6639313,44.6835012 21.8168569,45.6521501 23.4106069,45.6521501 C25.0043569,45.6521501 26.1572824,44.6835012 26.1572824,42.7796052 L26.1572824,35.9322597 L31.1080803,35.9322597 C32.8374686,35.9322597 33.8547558,34.9636108 33.8547558,33.4271333 C33.8547558,31.8906557 32.8374686,30.9220069 31.1080803,30.9220069 L26.1572824,30.9220069 L26.1572824,26.6799928 L31.8201813,26.6799928 C33.5495696,26.6799928 34.5668569,25.7447456 34.5668569,24.1748664 C34.5668569,22.6717906 33.5495696,21.66974 31.8201813,21.66974 L23.4106069,21.66974 C21.9864047,21.66974 20.6639313,22.6383889 20.6639313,24.3752765 L20.6639313,42.7796052 Z M52.7423888,30.1871698 L52.7423888,42.9466136 C52.7423888,44.4496895 51.6572824,45.6521501 50.097442,45.6521501 C48.8088781,45.6521501 47.9950483,44.7837063 47.622043,43.9820659 C46.4352079,45.4183383 45.0788249,45.986167 43.07816,45.986167 C38.4664579,45.986167 34.9059526,41.8109563 34.9059526,36.5668917 C34.9059526,31.3228271 38.4664579,27.1476164 43.07816,27.1476164 C45.0788249,27.1476164 46.4352079,27.7154451 47.622043,29.1517175 C47.9950483,28.3500771 48.8088781,27.4816333 50.097442,27.4816333 C51.6572824,27.4816333 52.7423888,28.6840939 52.7423888,30.1871698 Z M43.8241707,32.1578692 C41.48441,32.1578692 40.1958462,34.1619703 40.1958462,36.5668917 C40.1958462,38.971813 41.48441,40.9759142 43.8241707,40.9759142 C46.1639313,40.9759142 47.4524951,38.971813 47.4524951,36.5668917 C47.4524951,34.1619703 46.1639313,32.1578692 43.8241707,32.1578692 Z M56.4385324,42.9466136 C56.4385324,44.4496895 57.5236388,45.6521501 59.0834792,45.6521501 C60.6433196,45.6521501 61.728426,44.4496895 61.728426,42.9466136 L61.728426,32.4918861 L63.1865377,32.4918861 C64.8820164,32.4918861 65.9671228,31.757049 65.9671228,30.0869647 C65.9671228,28.4168805 64.8820164,27.6820434 63.1865377,27.6820434 L61.728426,27.6820434 L61.728426,24.2750715 C61.728426,22.7719956 60.6433196,21.569535 59.0834792,21.569535 C57.5236388,21.569535 56.4385324,22.7719956 56.4385324,24.2750715 L56.4385324,27.6820434 L55.82816,27.6820434 C54.1326813,27.6820434 53.0475749,28.4168805 53.0475749,30.0869647 C53.0475749,31.757049 54.1326813,32.4918861 55.82816,32.4918861 L56.4385324,32.4918861 L56.4385324,42.9466136 Z M66.3740377,42.9466136 C66.3740377,44.4496895 67.4591441,45.6521501 69.0189845,45.6521501 C70.5788249,45.6521501 71.6639313,44.4496895 71.6639313,42.9466136 L71.6639313,34.6963973 C71.6639313,32.8927063 72.7490377,31.5566389 74.5801547,31.5566389 C76.4112717,31.5566389 77.4963781,32.8927063 77.4963781,34.6963973 L77.4963781,42.9466136 C77.4963781,44.4496895 78.5814845,45.6521501 80.1413249,45.6521501 C81.7011654,45.6521501 82.7862717,44.4496895 82.7862717,42.9466136 L82.7862717,33.2935265 C82.7862717,29.0181108 79.8700483,27.1476164 76.2078143,27.1476164 C74.1732398,27.1476164 72.8168569,27.7822484 71.7317505,28.4502821 L71.6639313,28.4502821 L71.6639313,22.4379788 C71.6639313,20.9349029 70.5788249,19.7324423 69.0189845,19.7324423 C67.4591441,19.7324423 66.3740377,20.9349029 66.3740377,22.4379788 L66.3740377,42.9466136 Z M99.7749686,38.2703777 L90.2124686,38.2703777 C90.2124686,39.3726333 91.0602079,41.1763243 94.4511654,41.1763243 C97.0622026,41.1763243 98.6559526,39.5396417 99.8766973,39.5396417 C101.063532,39.5396417 102.08082,40.4414872 102.08082,41.7775546 C102.08082,44.3160827 97.7743037,45.986167 93.7729739,45.986167 C88.0761654,45.986167 84.51566,41.8109563 84.51566,36.5668917 C84.51566,31.5566389 88.347442,27.1476164 93.7729739,27.1476164 C98.9950483,27.1476164 102.352096,31.4564338 102.352096,35.999063 C102.352096,37.8361557 101.470447,38.2703777 99.7749686,38.2703777 Z M90.2124686,34.6963973 L97.0622026,34.6963973 C97.0622026,33.5273383 95.7058196,31.5566389 93.6373356,31.5566389 C91.5688515,31.5566389 90.2124686,33.5273383 90.2124686,34.6963973 Z M104.081485,42.9466136 C104.081485,44.4496895 105.166591,45.6521501 106.726431,45.6521501 C108.286272,45.6521501 109.371378,44.4496895 109.371378,42.9466136 L109.371378,36.6002934 C109.371378,33.9281586 110.117389,33.3269282 112.42324,32.6588945 C114.356086,32.0910659 115.746378,31.6568439 115.746378,29.8531529 C115.746378,28.2164703 114.389995,27.1476164 113.033612,27.1476164 C111.541591,27.1476164 110.253027,28.1162653 109.371378,29.1517175 C109.032282,28.3834788 108.150633,27.4816333 106.726431,27.4816333 C105.166591,27.4816333 104.081485,28.6840939 104.081485,30.1871698 L104.081485,42.9466136 Z" id="Father" fill="#FF9901"></path>
                <path d="M117.621857,42.8976919 C117.621857,44.4007678 118.706963,45.6032285 120.266804,45.6032285 C121.826644,45.6032285 122.91175,44.4007678 122.91175,42.8976919 L122.91175,22.3890571 C122.91175,20.8859813 121.826644,19.6835206 120.266804,19.6835206 C118.706963,19.6835206 117.621857,20.8859813 117.621857,22.3890571 L117.621857,42.8976919 Z M125.149782,42.8976919 C125.149782,44.4007678 126.234889,45.6032285 127.794729,45.6032285 C129.35457,45.6032285 130.439676,44.4007678 130.439676,42.8976919 L130.439676,30.1382481 C130.439676,28.6351723 129.35457,27.4327116 127.794729,27.4327116 C126.234889,27.4327116 125.149782,28.6351723 125.149782,30.1382481 L125.149782,42.8976919 Z M124.641139,22.7898773 C124.641139,24.526765 126.065341,25.8962341 127.794729,25.8962341 C129.524118,25.8962341 130.94832,24.526765 130.94832,22.7898773 C130.94832,21.0529897 129.524118,19.6835206 127.794729,19.6835206 C126.065341,19.6835206 124.641139,21.0529897 124.641139,22.7898773 Z M132.779437,42.8976919 C132.779437,44.4007678 133.864543,45.6032285 135.424383,45.6032285 C136.984224,45.6032285 138.06933,44.4007678 138.06933,42.8976919 L138.06933,34.6474757 C138.06933,32.8437846 139.154437,31.5077172 140.985554,31.5077172 C142.816671,31.5077172 143.901777,32.8437846 143.901777,34.6474757 L143.901777,42.8976919 C143.901777,44.4007678 144.986883,45.6032285 146.546724,45.6032285 C148.106564,45.6032285 149.191671,44.4007678 149.191671,42.8976919 L149.191671,33.2446049 C149.191671,28.9691891 146.275447,27.0986948 142.613213,27.0986948 C140.341272,27.0986948 138.91707,27.8001301 138.06933,29.1027959 C137.730235,28.3345571 136.848586,27.4327116 135.424383,27.4327116 C133.864543,27.4327116 132.779437,28.6351723 132.779437,30.1382481 L132.779437,42.8976919 Z M166.180368,38.221456 L156.617868,38.221456 C156.617868,39.3237116 157.465607,41.1274026 160.856564,41.1274026 C163.467602,41.1274026 165.061352,39.49072 166.282096,39.49072 C167.468931,39.49072 168.486219,40.3925655 168.486219,41.728633 C168.486219,44.267161 164.179703,45.9372453 160.178373,45.9372453 C154.481564,45.9372453 150.921059,41.7620346 150.921059,36.51797 C150.921059,31.5077172 154.752841,27.0986948 160.178373,27.0986948 C165.400447,27.0986948 168.757495,31.4075122 168.757495,35.9501414 C168.757495,37.7872341 167.875846,38.221456 166.180368,38.221456 Z M156.617868,34.6474757 L163.467602,34.6474757 C163.467602,33.4784167 162.111219,31.5077172 160.042735,31.5077172 C157.97425,31.5077172 156.617868,33.4784167 156.617868,34.6474757 Z" id="line" fill="#FF9901" opacity="0.5"></path>
                <g id="call-answer" opacity="0.5" stroke-width="1" transform="translate(18.323611, 18.744959) rotate(90.000000) translate(-18.323611, -18.744959) translate(0.323611, 0.744959)">
                    <mask id="mask-2" fill="white">
                        <use xlink:href="#path-1"></use>
                    </mask>
                    <g id="Clip-2"></g>
                    <path d="M35.0214967,28.2518022 L29.4894134,22.7821707 C28.3866357,21.6977827 26.5631763,21.731401 25.4232175,22.8587893 L22.6354209,25.6131506 C22.4597992,25.5185501 22.2770577,25.417695 22.0856143,25.3113671 C20.3238597,24.3458161 17.9165768,23.0268812 15.3795554,20.5195759 C12.8369963,18.006016 11.4984742,15.620675 10.5222708,13.8795559 C10.417056,13.6966094 10.3181699,13.5199174 10.2224482,13.3486983 L12.0917907,11.5035967 L13.012618,10.5935551 C14.1533679,9.46382138 14.1873847,7.6617201 13.0869803,6.57498658 L7.5525238,1.10535512 C6.45528377,0.017839772 4.62945106,0.0514581472 3.4855368,1.18119192 L1.92867425,2.72998264 C1.44611014,3.43205941 1.01022027,4.19277288 0.685873901,5.01134122 C0.386051285,5.7931639 0.197772174,6.53824091 0.114707861,7.28331792 C-0.617840273,13.2689524 2.15097017,18.7385838 9.65998409,26.162772 C20.0430232,36.4210673 28.4111595,35.6486265 28.772687,35.6087536 C29.557447,35.5172803 30.3113545,35.3312065 31.0779195,35.038023 C31.8998607,34.720603 32.66959,34.2898187 33.3341045,33.7738157 L34.9502987,32.2742798 C36.0870931,31.1437643 36.1211099,29.3424448 35.0214967,28.2518022 Z" id="Fill-1" fill="#FF9901" mask="url(#mask-2)"></path>
                </g>
            </g>
        </g>
    </g>
</svg>