<?xml version="1.0" encoding="UTF-8"?>
<svg width="200px" height="30px" viewBox="0 0 200 30" version="1.1" xmlns="http://www.w3.org/2000/svg" xmlns:xlink="http://www.w3.org/1999/xlink">
    <!-- Generator: Sketch 45.1 (43504) - http://www.bohemiancoding.com/sketch -->
    <title>Group</title>
    <desc>Created with Sketch.</desc>
    <defs></defs>
    <g id="Page-1" stroke="none" stroke-width="1" fill="none" fill-rule="evenodd">
        <g id="Fatherline_desktop" transform="translate(-330.000000, -581.000000)">
            <g id="Group" transform="translate(330.000000, 581.000000)">
                <path d="M121.455301,22.0868197 C119.92242,23.6319106 117.554834,25.0589737 115.808097,25.893308 L115.808097,26.529326 L126.924168,26.529326 L126.924168,25.893308 C125.20851,25.0878332 123.325246,23.3577458 122.03471,22.0868197 L121.455301,22.0868197" id="Fill-1" fill="#FFFFFE"></path>
                <path d="M117.348008,0.841079964 L117.348008,1.47191808 C119.163564,1.82896135 122.931573,3.65746691 123.282326,4.61722883 L131.488402,26.5282161 L132.1296,26.529326 L136.633895,18.4590381 L129.98919,0.841079964 L117.348008,0.841079964" id="Fill-2" fill="#FFFFFE"></path>
                <path d="M150.15714,22.9685131 L147.962341,4.35490377 C147.853194,3.42474129 150.728039,1.82859136 152.421867,1.47117809 L152.421867,0.840709971 L139.912403,0.840709971 L142.513454,23.0772911 C142.651462,24.1647006 139.806585,25.4914956 137.996209,25.8914581 L137.996209,26.529326 L154.702504,26.529326 L154.702504,25.8914581 C153.375339,25.6572525 150.299217,24.1351011 150.15714,22.9685131" id="Fill-3" fill="#FFFFFE"></path>
                <path d="M156.111438,1.47672799 C157.746807,1.85523086 160.599453,2.92266075 160.599453,4.01784012 L160.599453,23.3521959 C160.599453,24.4477453 157.746807,25.5151751 156.111438,25.893308 L156.111438,26.5285861 L172.701185,26.5285861 L172.701185,25.893308 C171.065816,25.5151751 168.21317,24.4477453 168.21317,23.3521959 L168.21317,4.01784012 C168.21317,2.92266075 171.065816,1.85523086 172.701185,1.47672799 L172.701185,0.84181995 L156.111438,0.84181995 L156.111438,1.47672799" id="Fill-4" fill="#FFFFFE"></path>
                <path d="M186.550765,23.3521959 L186.550765,0.84921981 L174.448663,0.84181995 L174.448663,1.47672799 C176.084032,1.85523086 178.936678,2.92266075 178.936678,4.01821011 L178.936678,23.3521959 C178.936678,24.4473753 176.084032,25.5148052 174.448663,25.893678 L174.448663,26.5285861 L191.03841,26.5285861 L191.03841,25.893678 C189.403411,25.5148052 186.550765,24.4473753 186.550765,23.3521959" id="Fill-5" fill="#FFFFFE"></path>
                <path d="M188.91132,0.839599992 L188.91132,1.47524802 L194.022774,2.64553597 C195.489056,2.94338036 197.461489,7.50576441 198.4564,10.5348973 L199.202676,10.5348973 L199.202676,0.846259866 L188.91132,0.839599992" id="Fill-6" fill="#FFFFFE"></path>
                <path d="M191.133498,12.251295 L188.615696,12.9239423 L188.615696,13.527401 L191.133498,14.2000483 C192.07328,14.4357339 193.905486,18.2803314 193.943965,18.7990617 L194.685801,18.7990617 L194.685801,7.65228165 L193.943965,7.65228165 C193.905486,8.17138187 192.07328,12.0159794 191.133498,12.251295" id="Fill-7" fill="#FFFFFE"></path>
                <path d="M9.22865294,9.54177492 C8.78785125,10.0454629 8.24389138,10.44421 7.59675699,10.738028 C6.9496226,11.031846 6.20402243,11.1787528 5.3599341,11.1787528 C4.59087584,11.1787528 3.88044549,11.0528327 3.22862172,10.8009887 C2.57679796,10.5491447 2.01173619,10.192371 1.53341947,9.73065698 C1.05510275,9.26894296 0.679958004,8.71629357 0.407973987,8.07269221 C0.135989969,7.42909086 0,6.72020725 0,5.94602011 C0,5.15317786 0.138334624,4.43496684 0.415008021,3.79136548 C0.691681418,3.14776413 1.07386012,2.59977844 1.5615556,2.14739198 C2.04925108,1.69500552 2.62134682,1.34755928 3.27785996,1.10504283 C3.93437311,0.862526373 4.64245881,0.741269966 5.40213831,0.741269966 C6.10554525,0.741269966 6.79721837,0.864858227 7.47717841,1.11203846 C8.15713845,1.35921869 8.70813229,1.72065606 9.13017646,2.1963614 L7.49828051,3.81934801 C7.27319029,3.51153867 6.97776381,3.28301697 6.6119922,3.13377608 C6.24622059,2.98453519 5.87107584,2.90991586 5.48654672,2.90991586 C5.06450255,2.90991586 4.67763454,2.98686704 4.32593106,3.14077171 C3.97422759,3.29467638 3.67176715,3.5068751 3.41854065,3.77737422 C3.16531415,4.04787334 2.96836316,4.36733733 2.82768177,4.73577579 C2.68700038,5.10421425 2.61666074,5.50762499 2.61666074,5.94602011 C2.61666074,6.39374279 2.68700038,6.80414909 2.82768177,7.17725133 C2.96836316,7.55035356 3.16296949,7.86981756 3.41150661,8.1356529 C3.66004373,8.40148824 3.95781487,8.60902325 4.30482896,8.75826414 C4.65184305,8.90750504 5.0316771,8.98212436 5.44434251,8.98212436 C5.92265923,8.98212436 6.34000776,8.8888502 6.69640061,8.70229909 C7.05279346,8.51574797 7.33884132,8.27323515 7.55455279,7.97475337 L9.22865294,9.54177492 Z M14.6643021,5.82009874 C14.5611358,5.79211607 14.4603156,5.77346124 14.3618386,5.76413368 C14.2633617,5.75480613 14.1672308,5.75014242 14.0734432,5.75014242 C13.7639442,5.75014242 13.5036875,5.80610691 13.2926654,5.91803758 C13.0816433,6.02996825 12.9128282,6.16521579 12.786215,6.32378423 C12.6596017,6.48235268 12.5681602,6.65490988 12.5118876,6.841461 C12.4556151,7.02801211 12.4274792,7.19124189 12.4274792,7.33115523 L12.4274792,10.9129188 L10.120316,10.9129188 L10.120316,3.94526938 L12.3430708,3.94526938 L12.3430708,4.95264038 L12.3712069,4.95264038 C12.5494034,4.59819326 12.8026261,4.30904336 13.1308826,4.08518202 C13.4591392,3.86132068 13.8389733,3.74939169 14.2703962,3.74939169 C14.3641838,3.74939169 14.4556253,3.7540554 14.5447235,3.76338295 C14.6338217,3.77271051 14.706506,3.78670163 14.7627786,3.80535675 L14.6643021,5.82009874 Z M20.2547,6.63159204 C20.2547,6.26781736 20.1398119,5.95534893 19.9100323,5.69417736 C19.6802527,5.4330058 19.3355885,5.30242198 18.8760293,5.30242198 C18.6509391,5.30242198 18.4446095,5.33739978 18.2570343,5.40735645 C18.0694591,5.47731312 17.9053333,5.57291914 17.7646519,5.69417736 C17.6239705,5.81543559 17.5114271,5.95767868 17.4270183,6.12091091 C17.3426094,6.28414314 17.2957163,6.45436848 17.2863376,6.63159204 L20.2547,6.63159204 Z M22.3789784,7.51304166 L22.3789784,7.79286694 C22.3789784,7.8861425 22.3742891,7.97475295 22.3649103,8.05870095 L17.2863376,8.05870095 C17.3050951,8.25457962 17.3637115,8.43180053 17.4621884,8.59036898 C17.5606654,8.74893743 17.6872767,8.88651681 17.8420263,9.00311126 C17.9967758,9.11970571 18.1702802,9.21064801 18.3625448,9.2759409 C18.5548094,9.34123379 18.754105,9.37387975 18.9604377,9.37387975 C19.3262093,9.37387975 19.6357037,9.30625598 19.8889302,9.17100642 C20.1421567,9.03575686 20.3484863,8.86086782 20.5079253,8.64633403 L22.1116851,9.65370503 C21.7834285,10.1294104 21.3496674,10.4955115 20.8103887,10.7520192 C20.2711101,11.008527 19.6450873,11.136779 18.9323016,11.136779 C18.4070911,11.136779 17.9100243,11.0551641 17.4410863,10.8919319 C16.9721484,10.7286996 16.5618338,10.4908505 16.2101303,10.1783774 C15.8584269,9.8659043 15.5817576,9.48114839 15.3801143,9.02409815 C15.178471,8.56704792 15.0776508,8.04471262 15.0776508,7.45707661 C15.0776508,6.8880957 15.1761263,6.37275597 15.3730803,5.91104195 C15.5700342,5.44932794 15.8373248,5.05757647 16.1749602,4.73577579 C16.5125955,4.41397511 16.9111868,4.16446674 17.370746,3.98724317 C17.8303052,3.81001961 18.327372,3.72140916 18.8619612,3.72140916 C19.377793,3.72140916 19.8514132,3.80768776 20.2828362,3.98024754 C20.7142591,4.15280733 21.0847145,4.4023157 21.3942136,4.72878016 C21.7037126,5.05524461 21.9452121,5.45165979 22.1187191,5.91803758 C22.2922261,6.38441538 22.3789784,6.91607809 22.3789784,7.51304166 Z M27.745694,7.87681452 L27.4502646,7.87681452 C27.1970381,7.87681452 26.9414707,7.88847379 26.6835548,7.91179268 C26.4256389,7.93511157 26.1958628,7.9794168 25.9942195,8.04470969 C25.7925761,8.11000258 25.6261057,8.20560859 25.494803,8.33153059 C25.3635004,8.4574526 25.2978501,8.62301423 25.2978501,8.82822046 C25.2978501,8.95880624 25.3283306,9.07073523 25.3892925,9.16401079 C25.4502545,9.25728635 25.5276281,9.33190568 25.6214157,9.38787101 C25.7152032,9.44383635 25.8230574,9.48347787 25.9449812,9.50679676 C26.0669051,9.53011565 26.1841378,9.54177492 26.2966829,9.54177492 C26.7656209,9.54177492 27.1243531,9.41352295 27.3728902,9.15701516 C27.6214273,8.90050737 27.745694,8.55306113 27.745694,8.11466601 L27.745694,7.87681452 Z M23.5112054,4.89667532 C23.9238708,4.50491798 24.404525,4.21110438 24.9531824,4.0152257 C25.5018398,3.81934703 26.0622123,3.72140916 26.6343166,3.72140916 C27.2251784,3.72140916 27.7245899,3.79369664 28.1325659,3.93827375 C28.5405419,4.08285087 28.8711382,4.30670885 29.1243647,4.60985442 C29.3775912,4.91299998 29.5628189,5.29542403 29.6800534,5.75713805 C29.7972879,6.21885206 29.8559043,6.76683775 29.8559043,7.40111155 L29.8559043,10.9129188 L27.745694,10.9129188 L27.745694,10.1713818 L27.7034898,10.1713818 C27.5252934,10.460536 27.2556581,10.684394 26.8945759,10.8429625 C26.5334936,11.0015309 26.1419363,11.0808139 25.7198921,11.0808139 C25.4385294,11.0808139 25.1477922,11.0435043 24.8476719,10.9688838 C24.5475516,10.8942634 24.273227,10.773007 24.0246899,10.605111 C23.7761528,10.437215 23.5721678,10.213357 23.4127289,9.9335303 C23.25329,9.65370363 23.1735717,9.30858924 23.1735717,8.89817678 C23.1735717,8.39448876 23.3119064,7.98874617 23.5885798,7.68093683 C23.8652532,7.37312748 24.2216407,7.13527838 24.657753,6.96738237 C25.0938653,6.79948637 25.5792088,6.68755737 26.1137981,6.63159204 C26.6483873,6.5756267 27.1689007,6.54764446 27.6753537,6.54764446 L27.6753537,6.43571435 C27.6753537,6.09059478 27.5534316,5.83642269 27.3095839,5.67319047 C27.0657361,5.50995824 26.7656203,5.42834335 26.4092275,5.42834335 C26.0809709,5.42834335 25.7644425,5.49829897 25.4596329,5.63821231 C25.1548232,5.77812564 24.8945665,5.94601913 24.6788551,6.1418978 L23.5112054,4.89667532 Z M33.8580173,5.66619483 L33.8580173,8.32453496 C33.8580173,8.65099942 33.9213229,8.89584409 34.0479362,9.05907631 C34.1745494,9.22230854 34.4019809,9.30392343 34.7302375,9.30392343 C34.8427826,9.30392343 34.96236,9.29459602 35.0889733,9.2759409 C35.2155865,9.25728579 35.321096,9.22930354 35.4055048,9.19199332 L35.4336409,10.870945 C35.274202,10.9269103 35.0725617,10.9758792 34.828714,11.0178533 C34.5848662,11.0598273 34.3410222,11.0808139 34.0971744,11.0808139 C33.6282365,11.0808139 33.2343345,11.0225176 32.9154567,10.9059231 C32.5965789,10.7893287 32.3410115,10.6214352 32.1487469,10.4022376 C31.9564824,10.1830401 31.8181477,9.92187243 31.7337389,9.61872687 C31.6493301,9.3155813 31.6071263,8.97746247 31.6071263,8.60436024 L31.6071263,5.66619483 L30.4816808,5.66619483 L30.4816808,3.94526938 L31.5930582,3.94526938 L31.5930582,2.11241382 L33.8580173,2.11241382 L33.8580173,3.94526938 L35.5039813,3.94526938 L35.5039813,5.66619483 L33.8580173,5.66619483 Z M39.0826454,1.72065843 C39.0826454,1.897882 39.0474756,2.06344363 38.9771349,2.2173483 C38.9067942,2.37125297 38.813008,2.50416865 38.6957735,2.61609932 C38.578539,2.72802999 38.4378597,2.81664044 38.2737315,2.88193333 C38.1096032,2.94722622 37.9384434,2.97987218 37.760247,2.97987218 C37.3850966,2.97987218 37.0709129,2.85628392 36.8176864,2.60910369 C36.5644599,2.36192346 36.4378485,2.065778 36.4378485,1.72065843 C36.4378485,1.55276243 36.4706737,1.3918645 36.536325,1.23795983 C36.6019763,1.08405516 36.6957625,0.951139483 36.8176864,0.839208813 C36.9396102,0.727278142 37.0802895,0.636335837 37.2397284,0.566379168 C37.3991673,0.496422499 37.5726718,0.461444689 37.760247,0.461444689 C37.9384434,0.461444689 38.1096032,0.494090645 38.2737315,0.559383536 C38.4378597,0.624676427 38.578539,0.713286879 38.6957735,0.825217549 C38.813008,0.937148219 38.9067942,1.0700639 38.9771349,1.22396857 C39.0474756,1.37787324 39.0826454,1.54343487 39.0826454,1.72065843 Z M36.6066653,10.9129188 L36.6066653,3.94526938 L38.9138286,3.94526938 L38.9138286,10.9129188 L36.6066653,10.9129188 Z M45.0669492,10.9129188 L42.5769011,10.9129188 L39.8195597,3.94526938 L42.3658801,3.94526938 L43.8430273,8.4644476 L43.8852315,8.4644476 L45.3623787,3.94526938 L47.8242907,3.94526938 L45.0669492,10.9129188 Z M53.2050744,6.63159204 C53.2050744,6.26781736 53.0901863,5.95534893 52.8604067,5.69417736 C52.6306271,5.4330058 52.2859628,5.30242198 51.8264036,5.30242198 C51.6013134,5.30242198 51.3949838,5.33739978 51.2074086,5.40735645 C51.0198334,5.47731312 50.8557076,5.57291914 50.7150262,5.69417736 C50.5743448,5.81543559 50.4618014,5.95767868 50.3773926,6.12091091 C50.2929838,6.28414314 50.2460907,6.45436848 50.2367119,6.63159204 L53.2050744,6.63159204 Z M55.3293527,7.51304166 L55.3293527,7.79286694 C55.3293527,7.8861425 55.3246634,7.97475295 55.3152846,8.05870095 L50.2367119,8.05870095 C50.2554694,8.25457962 50.3140858,8.43180053 50.4125628,8.59036898 C50.5110397,8.74893743 50.6376511,8.88651681 50.7924006,9.00311126 C50.9471501,9.11970571 51.1206546,9.21064801 51.3129191,9.2759409 C51.5051837,9.34123379 51.7044794,9.37387975 51.9108121,9.37387975 C52.2765837,9.37387975 52.5860781,9.30625598 52.8393046,9.17100642 C53.0925311,9.03575686 53.2988607,8.86086782 53.4582996,8.64633403 L55.0620594,9.65370503 C54.7338028,10.1294104 54.3000417,10.4955115 53.7607631,10.7520192 C53.2214844,11.008527 52.5954616,11.136779 51.8826759,11.136779 C51.3574654,11.136779 50.8603986,11.0551641 50.3914607,10.8919319 C49.9225227,10.7286996 49.5122081,10.4908505 49.1605047,10.1783774 C48.8088012,9.8659043 48.5321319,9.48114839 48.3304886,9.02409815 C48.1288453,8.56704792 48.0280251,8.04471262 48.0280251,7.45707661 C48.0280251,6.8880957 48.1265006,6.37275597 48.3234546,5.91104195 C48.5204085,5.44932794 48.7876992,5.05757647 49.1253345,4.73577579 C49.4629698,4.41397511 49.8615611,4.16446674 50.3211203,3.98724317 C50.7806795,3.81001961 51.2777463,3.72140916 51.8123356,3.72140916 C52.3281673,3.72140916 52.8017876,3.80768776 53.2332105,3.98024754 C53.6646334,4.15280733 54.0350889,4.4023157 54.3445879,4.72878016 C54.654087,5.05524461 54.8955864,5.45165979 55.0690934,5.91803758 C55.2426005,6.38441538 55.3293527,6.91607809 55.3293527,7.51304166 Z M63.8262136,7.63896304 C63.8262136,8.24525417 63.7183595,8.76992131 63.502648,9.21298022 C63.2869365,9.65603912 62.998544,10.0221402 62.6374618,10.3112944 C62.2763796,10.6004487 61.866065,10.8173111 61.4065058,10.9618882 C60.9469466,11.1064653 60.4733264,11.1787528 59.9856309,11.1787528 C59.5354504,11.1787528 59.1063786,11.1204564 58.6984026,11.003862 C58.2904266,10.8872675 57.9199711,10.7217059 57.5870252,10.5071721 C57.2540792,10.2926383 56.9680314,10.0291388 56.728873,9.71666571 C56.4897147,9.40419259 56.3138656,9.05208264 56.2013204,8.66032529 L58.3537349,8.00273589 C58.4569013,8.34785546 58.6515076,8.63234165 58.9375598,8.85620299 C59.2236119,9.08006433 59.5635868,9.19199332 59.9574947,9.19199332 C60.3607814,9.19199332 60.7101349,9.07073691 61.0055658,8.82822046 C61.3009968,8.58570401 61.44871,8.22659849 61.44871,7.75089315 C61.44871,7.46173891 61.387749,7.2192261 61.2658251,7.02334743 C61.1439012,6.82746875 60.9868094,6.67123454 60.7945448,6.55464009 C60.6022802,6.43804564 60.3842274,6.35643075 60.1403796,6.30979297 C59.8965319,6.26315519 59.6526878,6.23983665 59.4088401,6.23983665 C59.0524472,6.23983665 58.646822,6.27947817 58.1919521,6.35876239 C57.7370823,6.43804662 57.3314571,6.54298005 56.9750642,6.67356583 L57.2142214,1.00710398 L63.3197631,1.00710398 L63.3197631,3.02184597 L59.3103636,3.02184597 L59.2259552,4.58886752 C59.3760153,4.5515573 59.5424858,4.5259069 59.7253716,4.51191557 C59.9082574,4.49792423 60.0747279,4.49092867 60.224788,4.49092867 C60.7218623,4.49092867 61.1907932,4.55622058 61.6315949,4.68680637 C62.0723966,4.81739215 62.4545753,5.01559974 62.7781425,5.28143508 C63.1017097,5.54727042 63.357277,5.87606183 63.5448522,6.26781918 C63.7324274,6.65957653 63.8262136,7.11661991 63.8262136,7.63896304 Z M72.5974018,5.93202885 C72.5974018,6.63159554 72.5270621,7.29850578 72.3863808,7.93277958 C72.2456994,8.56705337 72.0206125,9.12436648 71.7111135,9.6047356 C71.4016144,10.0851047 71.0006785,10.4675288 70.5082936,10.7520192 C70.0159087,11.0365097 69.4180218,11.1787528 68.7146149,11.1787528 C68.0112079,11.1787528 67.4109763,11.0365097 66.9139021,10.7520192 C66.4168279,10.4675288 66.0112026,10.0851047 65.6970142,9.6047356 C65.3828257,9.12436648 65.1553942,8.56705337 65.0147129,7.93277958 C64.8740315,7.29850578 64.8036918,6.63159554 64.8036918,5.93202885 C64.8036918,5.23246216 64.8740315,4.56788377 65.0147129,3.93827375 C65.1553942,3.30866373 65.3828257,2.75834619 65.6970142,2.28730462 C66.0112026,1.81626305 66.4168279,1.44083456 66.9139021,1.16100788 C67.4109763,0.881181205 68.0112079,0.741269966 68.7146149,0.741269966 C69.4180218,0.741269966 70.0159087,0.881181205 70.5082936,1.16100788 C71.0006785,1.44083456 71.4016144,1.81626305 71.7111135,2.28730462 C72.0206125,2.75834619 72.2456994,3.30866373 72.3863808,3.93827375 C72.5270621,4.56788377 72.5974018,5.23246216 72.5974018,5.93202885 Z M70.177694,5.93202885 C70.177694,5.6242195 70.1589368,5.28376882 70.1214217,4.91066659 C70.0839067,4.53756435 70.013567,4.19011811 69.9104007,3.86831743 C69.8072343,3.54651676 69.6595211,3.27602169 69.4672565,3.05682413 C69.274992,2.83762657 69.0241139,2.72802943 68.7146149,2.72802943 C68.4051158,2.72802943 68.1518931,2.83762657 67.9549392,3.05682413 C67.7579852,3.27602169 67.6055827,3.54651676 67.4977269,3.86831743 C67.3898712,4.19011811 67.3171869,4.53756435 67.2796719,4.91066659 C67.2421569,5.28376882 67.2233996,5.6242195 67.2233996,5.93202885 C67.2233996,6.24916575 67.2421569,6.59661199 67.2796719,6.974378 C67.3171869,7.35214402 67.3898712,7.70192211 67.4977269,8.02372279 C67.6055827,8.34552347 67.7579852,8.61601853 67.9549392,8.83521609 C68.1518931,9.05441366 68.4051158,9.16401079 68.7146149,9.16401079 C69.0241139,9.16401079 69.274992,9.05441366 69.4672565,8.83521609 C69.6595211,8.61601853 69.8072343,8.34552347 69.9104007,8.02372279 C70.013567,7.70192211 70.0839067,7.35214402 70.1214217,6.974378 C70.1589368,6.59661199 70.177694,6.24916575 70.177694,5.93202885 Z" id="Creative50-" fill="#FFFFFE"></path>
                <path d="M4.23448862,21.5577801 C4.09380723,21.2872809 3.88044366,21.0657548 3.5943915,20.893195 C3.30833935,20.7206352 2.98243235,20.6343566 2.61666074,20.6343566 C2.44784308,20.6343566 2.27902794,20.6530115 2.11021028,20.6903217 C1.94139261,20.7276319 1.79133471,20.7882601 1.66003208,20.8722081 C1.52872945,20.9561561 1.42322,21.0634214 1.34350054,21.1940072 C1.26378109,21.324593 1.22392196,21.4784953 1.22392196,21.6557189 C1.22392196,21.9635282 1.35053331,22.1990455 1.60375981,22.3622777 C1.85698631,22.52551 2.2555776,22.6630893 2.79954563,22.77502 C3.57798265,22.9335885 4.15242303,23.164442 4.52288402,23.4675876 C4.89334501,23.7707331 5.07857273,24.1788076 5.07857273,24.6918232 C5.07857273,25.0649254 5.00588844,25.3797257 4.86051767,25.6362335 C4.7151469,25.8927413 4.52522987,26.1026081 4.29076089,26.2658403 C4.05629191,26.4290726 3.79134594,26.5456653 3.49591502,26.6156219 C3.20048411,26.6855786 2.90271297,26.7205564 2.60259267,26.7205564 C2.10551843,26.7205564 1.62251958,26.6179548 1.15358162,26.4127486 C0.684643656,26.2075424 0.300120295,25.8857465 0,25.4473514 L0.759675699,24.8877009 C0.928493365,25.1768551 1.17702676,25.4193679 1.50528333,25.6152466 C1.8335399,25.8111252 2.19461672,25.9090631 2.5885246,25.9090631 C2.79485731,25.9090631 2.9918083,25.8904083 3.17938348,25.8530981 C3.36695867,25.8157878 3.53108449,25.7504959 3.67176588,25.6572204 C3.81244727,25.5639448 3.92499069,25.4450202 4.00939952,25.3004431 C4.09380836,25.155866 4.13601214,24.9763133 4.13601214,24.7617795 C4.13601214,24.4166599 3.96954166,24.1578241 3.63659571,23.9852643 C3.30364976,23.8127045 2.82299555,23.6518066 2.19461869,23.5025657 C1.99766474,23.455928 1.78899048,23.3976316 1.56858964,23.3276749 C1.3481888,23.2577183 1.14420384,23.1551167 0.956628658,23.0198671 C0.769053474,22.8846176 0.614306268,22.7143922 0.492382398,22.509186 C0.370458528,22.3039798 0.309497507,22.0474758 0.309497507,21.7396665 C0.309497507,21.4038745 0.375147837,21.1170564 0.506450466,20.8792038 C0.637753095,20.6413511 0.813602193,20.4454754 1.03400303,20.2915707 C1.25440388,20.137666 1.50528192,20.0234052 1.7866447,19.9487847 C2.06800748,19.8741643 2.35874465,19.8368546 2.65886495,19.8368546 C3.11842415,19.8368546 3.56390853,19.9394562 3.99533145,20.1446624 C4.42675438,20.3498686 4.75031672,20.6390185 4.96602818,21.0121208 L4.23448862,21.5577801 Z M11.7387932,26.5526612 C11.7200356,26.3754377 11.7059677,26.1795619 11.6965889,25.9650282 C11.6872102,25.7504944 11.6825209,25.5732735 11.6825209,25.4333601 L11.6543847,25.4333601 C11.4668096,25.8157899 11.1620045,26.1259265 10.7399603,26.3637792 C10.3179161,26.6016319 9.87243174,26.7205564 9.40349378,26.7205564 C8.56878421,26.7205564 7.94276142,26.4733799 7.52540663,25.9790194 C7.10805185,25.484659 6.89937759,24.8317399 6.89937759,24.0202425 L6.89937759,20.0047498 L7.85600624,20.0047498 L7.85600624,23.6284871 C7.85600624,23.9736067 7.8841421,24.2860751 7.94041465,24.5659018 C7.99668721,24.8457285 8.09281805,25.0859094 8.22881006,25.2864519 C8.36480207,25.4869943 8.54768513,25.6432285 8.77746473,25.7551592 C9.00724433,25.8670899 9.29563685,25.9230544 9.64265094,25.9230544 C9.89587744,25.9230544 10.1420662,25.8717536 10.3812245,25.7691505 C10.6203829,25.6665474 10.8337465,25.5103131 11.0213217,25.3004431 C11.2088968,25.0905731 11.3589547,24.8247418 11.4714998,24.5029411 C11.584045,24.1811404 11.6403167,23.8010482 11.6403167,23.3626531 L11.6403167,20.0047498 L12.5969453,20.0047498 L12.5969453,25.1115611 C12.5969453,25.2887846 12.6016346,25.5173063 12.6110134,25.797133 C12.6203922,26.0769597 12.6344601,26.3287999 12.6532176,26.5526612 L11.7387932,26.5526612 Z M16.0637142,29.9105646 L15.1070855,29.9105646 L15.1070855,20.0047498 L16.0637142,20.0047498 L16.0637142,21.1380421 L16.1059184,21.1380421 C16.3779024,20.7089746 16.7413239,20.3848469 17.1961937,20.1656493 C17.6510635,19.9464517 18.1129605,19.8368546 18.5818985,19.8368546 C19.0977302,19.8368546 19.5643165,19.9254651 19.9816713,20.1026886 C20.3990261,20.2799122 20.7554136,20.522425 21.0508445,20.8302343 C21.3462754,21.1380437 21.5760516,21.5018129 21.7401798,21.9215529 C21.9043081,22.3412929 21.986371,22.7936726 21.986371,23.2787055 C21.986371,23.7637384 21.9043081,24.2161181 21.7401798,24.6358581 C21.5760516,25.0555981 21.3462754,25.4193673 21.0508445,25.7271767 C20.7554136,26.034986 20.3990261,26.2774988 19.9816713,26.4547224 C19.5643165,26.631946 19.0977302,26.7205564 18.5818985,26.7205564 C18.1129605,26.7205564 17.6510635,26.6109593 17.1961937,26.3917617 C16.7413239,26.1725641 16.3779024,25.8577639 16.1059184,25.4473514 L16.0637142,25.4473514 L16.0637142,29.9105646 Z M20.9734701,23.2787055 C20.9734701,22.9149308 20.9171984,22.5721483 20.8046533,22.2503476 C20.6921082,21.9285469 20.530327,21.6487245 20.3193049,21.4108718 C20.1082828,21.1730191 19.8480262,20.9841389 19.5385271,20.8442256 C19.2290281,20.7043123 18.8773299,20.6343566 18.483422,20.6343566 C18.1176504,20.6343566 17.7800201,20.7019804 17.4705211,20.83723 C17.161022,20.9724795 16.8937314,21.1590278 16.6686411,21.3968805 C16.4435509,21.6347332 16.2677018,21.9145557 16.1410886,22.2363564 C16.0144753,22.558157 15.9511697,22.9056033 15.9511697,23.2787055 C15.9511697,23.6518077 16.0144753,23.999254 16.1410886,24.3210547 C16.2677018,24.6428553 16.4435509,24.920346 16.6686411,25.1535349 C16.8937314,25.3867238 17.161022,25.5709402 17.4705211,25.7061898 C17.7800201,25.8414393 18.1176504,25.9090631 18.483422,25.9090631 C18.8773299,25.9090631 19.2290281,25.8414393 19.5385271,25.7061898 C19.8480262,25.5709402 20.1082828,25.3843919 20.3193049,25.1465392 C20.530327,24.9086866 20.6921082,24.6288641 20.8046533,24.3070634 C20.9171984,23.9852627 20.9734701,23.6424802 20.9734701,23.2787055 Z M24.9748256,29.9105646 L24.0181969,29.9105646 L24.0181969,20.0047498 L24.9748256,20.0047498 L24.9748256,21.1380421 L25.0170298,21.1380421 C25.2890138,20.7089746 25.6524353,20.3848469 26.1073051,20.1656493 C26.5621749,19.9464517 27.0240719,19.8368546 27.4930098,19.8368546 C28.0088416,19.8368546 28.4754279,19.9254651 28.8927827,20.1026886 C29.3101374,20.2799122 29.6665249,20.522425 29.9619559,20.8302343 C30.2573868,21.1380437 30.4871629,21.5018129 30.6512912,21.9215529 C30.8154195,22.3412929 30.8974824,22.7936726 30.8974824,23.2787055 C30.8974824,23.7637384 30.8154195,24.2161181 30.6512912,24.6358581 C30.4871629,25.0555981 30.2573868,25.4193673 29.9619559,25.7271767 C29.6665249,26.034986 29.3101374,26.2774988 28.8927827,26.4547224 C28.4754279,26.631946 28.0088416,26.7205564 27.4930098,26.7205564 C27.0240719,26.7205564 26.5621749,26.6109593 26.1073051,26.3917617 C25.6524353,26.1725641 25.2890138,25.8577639 25.0170298,25.4473514 L24.9748256,25.4473514 L24.9748256,29.9105646 Z M29.8845815,23.2787055 C29.8845815,22.9149308 29.8283098,22.5721483 29.7157647,22.2503476 C29.6032196,21.9285469 29.4414384,21.6487245 29.2304163,21.4108718 C29.0193942,21.1730191 28.7591376,20.9841389 28.4496385,20.8442256 C28.1401394,20.7043123 27.7884413,20.6343566 27.3945334,20.6343566 C27.0287618,20.6343566 26.6911315,20.7019804 26.3816324,20.83723 C26.0721334,20.9724795 25.8048427,21.1590278 25.5797525,21.3968805 C25.3546623,21.6347332 25.1788132,21.9145557 25.0522,22.2363564 C24.9255867,22.558157 24.862281,22.9056033 24.862281,23.2787055 C24.862281,23.6518077 24.9255867,23.999254 25.0522,24.3210547 C25.1788132,24.6428553 25.3546623,24.920346 25.5797525,25.1535349 C25.8048427,25.3867238 26.0721334,25.5709402 26.3816324,25.7061898 C26.6911315,25.8414393 27.0287618,25.9090631 27.3945334,25.9090631 C27.7884413,25.9090631 28.1401394,25.8414393 28.4496385,25.7061898 C28.7591376,25.5709402 29.0193942,25.3843919 29.2304163,25.1465392 C29.4414384,24.9086866 29.6032196,24.6288641 29.7157647,24.3070634 C29.8283098,23.9852627 29.8845815,23.6424802 29.8845815,23.2787055 Z M39.8550184,23.2787055 C39.8550184,23.773066 39.7682662,24.2301094 39.5947592,24.6498494 C39.4212521,25.0695894 39.1797527,25.4333586 38.8702536,25.7411679 C38.5607546,26.0489773 38.1902991,26.2891582 37.7588762,26.461718 C37.3274533,26.6342778 36.8538331,26.7205564 36.3380013,26.7205564 C35.8315483,26.7205564 35.3626174,26.6342778 34.9311945,26.461718 C34.4997715,26.2891582 34.1293161,26.0489773 33.819817,25.7411679 C33.510318,25.4333586 33.2688186,25.0695894 33.0953115,24.6498494 C32.9218045,24.2301094 32.8350522,23.773066 32.8350522,23.2787055 C32.8350522,22.784345 32.9218045,22.3273017 33.0953115,21.9075617 C33.2688186,21.4878216 33.510318,21.1240524 33.819817,20.8162431 C34.1293161,20.5084337 34.4997715,20.2682528 34.9311945,20.095693 C35.3626174,19.9231332 35.8315483,19.8368546 36.3380013,19.8368546 C36.8538331,19.8368546 37.3274533,19.9231332 37.7588762,20.095693 C38.1902991,20.2682528 38.5607546,20.5084337 38.8702536,20.8162431 C39.1797527,21.1240524 39.4212521,21.4878216 39.5947592,21.9075617 C39.7682662,22.3273017 39.8550184,22.784345 39.8550184,23.2787055 Z M38.8421175,23.2787055 C38.8421175,22.9149308 38.7835011,22.5721483 38.6662666,22.2503476 C38.5490321,21.9285469 38.3825617,21.6487245 38.1668502,21.4108718 C37.9511387,21.1730191 37.6885374,20.9841389 37.3790384,20.8442256 C37.0695393,20.7043123 36.7225304,20.6343566 36.3380013,20.6343566 C35.9534722,20.6343566 35.6088079,20.7043123 35.3039983,20.8442256 C34.9991886,20.9841389 34.7389319,21.1730191 34.5232205,21.4108718 C34.307509,21.6487245 34.1410385,21.9285469 34.023804,22.2503476 C33.9065695,22.5721483 33.8479532,22.9149308 33.8479532,23.2787055 C33.8479532,23.6424802 33.9065695,23.9852627 34.023804,24.3070634 C34.1410385,24.6288641 34.307509,24.9086866 34.5232205,25.1465392 C34.7389319,25.3843919 34.9991886,25.5709402 35.3039983,25.7061898 C35.6088079,25.8414393 35.9534722,25.9090631 36.3380013,25.9090631 C36.7225304,25.9090631 37.0695393,25.8414393 37.3790384,25.7061898 C37.6885374,25.5709402 37.9511387,25.3843919 38.1668502,25.1465392 C38.3825617,24.9086866 38.5490321,24.6288641 38.6662666,24.3070634 C38.7835011,23.9852627 38.8421175,23.6424802 38.8421175,23.2787055 Z M41.8868443,21.4458499 C41.8868443,21.2686264 41.882155,21.0401047 41.8727762,20.760278 C41.8633975,20.4804513 41.8493296,20.2286111 41.830572,20.0047498 L42.7449965,20.0047498 C42.763754,20.1819733 42.7778219,20.3778491 42.7872007,20.5923829 C42.7965795,20.8069166 42.8012688,20.9841375 42.8012688,21.1240509 L42.8294049,21.1240509 C43.0169801,20.7416211 43.2983386,20.4314845 43.673489,20.1936318 C44.0486394,19.9557792 44.4706772,19.8368546 44.9396152,19.8368546 C45.061539,19.8368546 45.1717378,19.8415183 45.2702148,19.8508459 C45.3686918,19.8601734 45.4695119,19.8788283 45.5726783,19.9068109 L45.4460656,20.8022518 C45.3897931,20.7835967 45.2960069,20.7649419 45.1647043,20.7462868 C45.0334016,20.7276316 44.902101,20.7183042 44.7707984,20.7183042 C44.5175719,20.7183042 44.2737278,20.7649413 44.0392588,20.8582169 C43.8047898,20.9514924 43.6008049,21.0983992 43.4272978,21.2989417 C43.2537908,21.4994841 43.1131115,21.7559881 43.0052558,22.0684612 C42.8974,22.3809343 42.843473,22.7563628 42.843473,23.1947579 L42.843473,26.5526612 L41.8868443,26.5526612 L41.8868443,21.4458499 Z M51.1257417,20.8022518 L49.2687566,20.8022518 L49.2687566,24.6218668 C49.2687566,24.8643833 49.2922032,25.0649227 49.339097,25.2234912 C49.3859908,25.3820596 49.4539858,25.5056479 49.543084,25.5942597 C49.6321822,25.6828715 49.7376917,25.7434997 49.8596155,25.7761461 C49.9815394,25.8087925 50.1128401,25.8251155 50.2535214,25.8251155 C50.3848241,25.8251155 50.5231587,25.8064607 50.6685295,25.7691505 C50.8139002,25.7318402 50.9522349,25.6805395 51.0835375,25.6152466 L51.1257417,26.4407311 C50.956924,26.506024 50.7810749,26.554993 50.5981891,26.5876394 C50.4153033,26.6202859 50.2160077,26.6366088 50.0002962,26.6366088 C49.8220998,26.6366088 49.6345274,26.6132903 49.4375735,26.5666525 C49.2406195,26.5200147 49.0577365,26.4314043 48.8889188,26.3008185 C48.7201011,26.1702327 48.5817665,25.9930118 48.4739108,25.7691505 C48.366055,25.5452891 48.312128,25.2514755 48.312128,24.8877009 L48.312128,20.8022518 L46.9475253,20.8022518 L46.9475253,20.0047498 L48.312128,20.0047498 L48.312128,18.1579029 L49.2687566,18.1579029 L49.2687566,20.0047498 L51.1257417,20.0047498 L51.1257417,20.8022518 Z M57.9027271,22.77502 C57.8745908,22.1594013 57.6752952,21.6487253 57.3048342,21.2429766 C56.9343732,20.8372279 56.4068259,20.6343566 55.7221765,20.6343566 C55.4032986,20.6343566 55.1078722,20.692653 54.8358881,20.8092474 C54.5639041,20.9258419 54.3247494,21.084408 54.1184167,21.2849504 C53.9120839,21.4854929 53.7479581,21.7140146 53.6260343,21.9705223 C53.5041104,22.2270301 53.4337707,22.4951933 53.4150132,22.77502 L57.9027271,22.77502 Z M58.8734238,23.0828278 L58.8734238,23.2926968 C58.8734238,23.3673172 58.8687345,23.4466003 58.8593557,23.5305483 L53.4009452,23.5305483 C53.4103239,23.8570127 53.4759742,24.1648174 53.5978981,24.4539717 C53.719822,24.7431259 53.8886371,24.9949661 54.1043486,25.2094999 C54.32006,25.4240337 54.5732827,25.594259 54.8640243,25.720181 C55.1547658,25.8461031 55.4689495,25.9090631 55.8065849,25.9090631 C56.3036591,25.9090631 56.7327309,25.7948023 57.0938131,25.5662771 C57.4548954,25.337752 57.72922,25.0742525 57.9167951,24.7757707 L58.6342666,25.3354213 C58.2403588,25.8297818 57.8065976,26.1842236 57.3329703,26.3987573 C56.859343,26.6132911 56.3505529,26.7205564 55.8065849,26.7205564 C55.3188894,26.7205564 54.866371,26.6342778 54.4490163,26.461718 C54.0316615,26.2891582 53.6729293,26.0489773 53.372809,25.7411679 C53.0726887,25.4333586 52.8358786,25.0695894 52.6623716,24.6498494 C52.4888645,24.2301094 52.4021123,23.773066 52.4021123,23.2787055 C52.4021123,22.784345 52.4865199,22.3273017 52.6553375,21.9075617 C52.8241552,21.4878216 53.0586207,21.1240524 53.358741,20.8162431 C53.6588612,20.5084337 54.0105594,20.2682528 54.4138461,20.095693 C54.8171327,19.9231332 55.2532385,19.8368546 55.7221765,19.8368546 C56.2380082,19.8368546 56.6928712,19.9231332 57.0867791,20.095693 C57.480687,20.2682528 57.8089386,20.5014382 58.0715439,20.7952562 C58.3341492,21.0890742 58.5334448,21.4318567 58.6694368,21.8236141 C58.8054288,22.2153714 58.8734238,22.6351051 58.8734238,23.0828278 Z M66.7055143,25.4473514 C66.4241516,25.8670914 66.0583854,26.1842236 65.608205,26.3987573 C65.1580245,26.6132911 64.6937829,26.7205564 64.2154662,26.7205564 C63.6996345,26.7205564 63.2330482,26.631946 62.8156934,26.4547224 C62.3983386,26.2774988 62.0419511,26.034986 61.7465202,25.7271767 C61.4510893,25.4193673 61.2213131,25.0555981 61.0571848,24.6358581 C60.8930565,24.2161181 60.8109936,23.7637384 60.8109936,23.2787055 C60.8109936,22.7936726 60.8930565,22.3412929 61.0571848,21.9215529 C61.2213131,21.5018129 61.4510893,21.1380437 61.7465202,20.8302343 C62.0419511,20.522425 62.3983386,20.2799122 62.8156934,20.1026886 C63.2330482,19.9254651 63.6996345,19.8368546 64.2154662,19.8368546 C64.6937829,19.8368546 65.1580245,19.9464517 65.608205,20.1656493 C66.0583854,20.3848469 66.4241516,20.7089746 66.7055143,21.1380421 L66.7336505,21.1380421 L66.7336505,15.9752658 L67.6902791,15.9752658 L67.6902791,26.5526612 L66.7336505,26.5526612 L66.7336505,25.4473514 L66.7055143,25.4473514 Z M61.8238946,23.2787055 C61.8238946,23.6424802 61.8801663,23.9852627 61.9927114,24.3070634 C62.1052565,24.6288641 62.2670377,24.9086866 62.4780597,25.1465392 C62.6890818,25.3843919 62.9493385,25.5709402 63.2588375,25.7061898 C63.5683366,25.8414393 63.9200348,25.9090631 64.3139427,25.9090631 C64.6797143,25.9090631 65.0173446,25.8414393 65.3268436,25.7061898 C65.6363427,25.5709402 65.9036333,25.3867238 66.1287235,25.1535349 C66.3538137,24.920346 66.5296628,24.6428553 66.6562761,24.3210547 C66.7828893,23.999254 66.846195,23.6518077 66.846195,23.2787055 C66.846195,22.9056033 66.7828893,22.558157 66.6562761,22.2363564 C66.5296628,21.9145557 66.3538137,21.6347332 66.1287235,21.3968805 C65.9036333,21.1590278 65.6363427,20.9724795 65.3268436,20.83723 C65.0173446,20.7019804 64.6797143,20.6343566 64.3139427,20.6343566 C63.9200348,20.6343566 63.5683366,20.7043123 63.2588375,20.8442256 C62.9493385,20.9841389 62.6890818,21.1730191 62.4780597,21.4108718 C62.2670377,21.6487245 62.1052565,21.9285469 61.9927114,22.2503476 C61.8801663,22.5721483 61.8238946,22.9149308 61.8238946,23.2787055 Z M75.2188962,25.4473514 L75.2188962,26.5526612 L74.2622675,26.5526612 L74.2622675,15.9752658 L75.2188962,15.9752658 L75.2188962,21.1380421 L75.2470323,21.1380421 C75.5283951,20.7089746 75.8941612,20.3848469 76.3443416,20.1656493 C76.7945221,19.9464517 77.2587637,19.8368546 77.7370804,19.8368546 C78.2529122,19.8368546 78.7194985,19.9254651 79.1368532,20.1026886 C79.554208,20.2799122 79.9105955,20.522425 80.2060265,20.8302343 C80.5014574,21.1380437 80.7312335,21.5018129 80.8953618,21.9215529 C81.0594901,22.3412929 81.141553,22.7936726 81.141553,23.2787055 C81.141553,23.7637384 81.0594901,24.2161181 80.8953618,24.6358581 C80.7312335,25.0555981 80.5014574,25.4193673 80.2060265,25.7271767 C79.9105955,26.034986 79.554208,26.2774988 79.1368532,26.4547224 C78.7194985,26.631946 78.2529122,26.7205564 77.7370804,26.7205564 C77.2587637,26.7205564 76.7945221,26.6132911 76.3443416,26.3987573 C75.8941612,26.1842236 75.5283951,25.8670914 75.2470323,25.4473514 L75.2188962,25.4473514 Z M80.1286521,23.2787055 C80.1286521,22.9149308 80.0723804,22.5721483 79.9598353,22.2503476 C79.8472901,21.9285469 79.685509,21.6487245 79.4744869,21.4108718 C79.2634648,21.1730191 79.0032081,20.9841389 78.6937091,20.8442256 C78.38421,20.7043123 78.0325118,20.6343566 77.638604,20.6343566 C77.2728323,20.6343566 76.9352021,20.7019804 76.625703,20.83723 C76.316204,20.9724795 76.0489133,21.1590278 75.8238231,21.3968805 C75.5987329,21.6347332 75.4228838,21.9145557 75.2962705,22.2363564 C75.1696573,22.558157 75.1063516,22.9056033 75.1063516,23.2787055 C75.1063516,23.6518077 75.1696573,23.999254 75.2962705,24.3210547 C75.4228838,24.6428553 75.5987329,24.920346 75.8238231,25.1535349 C76.0489133,25.3867238 76.316204,25.5709402 76.625703,25.7061898 C76.9352021,25.8414393 77.2728323,25.9090631 77.638604,25.9090631 C78.0325118,25.9090631 78.38421,25.8414393 78.6937091,25.7061898 C79.0032081,25.5709402 79.2634648,25.3843919 79.4744869,25.1465392 C79.685509,24.9086866 79.8472901,24.6288641 79.9598353,24.3070634 C80.0723804,23.9852627 80.1286521,23.6424802 80.1286521,23.2787055 Z M85.3440819,25.531299 L85.372218,25.531299 L87.4120879,20.0047498 L88.453125,20.0047498 L85.175265,28.2456042 C84.9783111,28.7492922 84.727433,29.1527029 84.4226234,29.4558485 C84.1178137,29.7589941 83.6793633,29.9105646 83.107259,29.9105646 C82.8165174,29.9105646 82.5304696,29.8825823 82.2491068,29.826617 L82.3475833,28.9591586 C82.5726735,29.0337791 82.807139,29.0710887 83.0509867,29.0710887 C83.3792433,29.0710887 83.6371553,28.970819 83.8247305,28.7702766 C84.0123056,28.5697341 84.1764315,28.2829161 84.3171129,27.9098138 L84.8516995,26.53867 L82.0380858,20.0047498 L83.107259,20.0047498 L85.3440819,25.531299 Z" id="supported-by" fill="#FFFFFE"></path>
                <path d="M99.416666,0.640543741 L99.416666,26.5285861" id="Stroke-8" stroke="#FFFFFE"></path>
            </g>
        </g>
    </g>
</svg>