
<svg width="199px" height="32px" viewBox="0 0 199 32" version="1.1" xmlns="http://www.w3.org/2000/svg" xmlns:xlink="http://www.w3.org/1999/xlink">
    <!-- Generator: Sketch 45 (43475) - http://www.bohemiancoding.com/sketch -->
    <desc>Created with Sketch.</desc>
    <defs></defs>
    <g id="Page-1" stroke="none" stroke-width="1" fill="none" fill-rule="evenodd">
        <g id="Fatherline_desktop" transform="translate(-330.000000, -577.000000)">
            <g id="Group" transform="translate(330.000000, 577.000000)">
                <path d="M120.455301,27.0868197 C118.92242,28.6319106 116.554834,30.0589737 114.808097,30.893308 L114.808097,31.529326 L125.924168,31.529326 L125.924168,30.893308 C124.20851,30.0878332 122.325246,28.3577458 121.03471,27.0868197 L120.455301,27.0868197" id="Fill-1" fill="#FFFFFE"></path>
                <path d="M116.348008,5.84107996 L116.348008,6.47191808 C118.163564,6.82896135 121.931573,8.65746691 122.282326,9.61722883 L130.488402,31.5282161 L131.1296,31.529326 L135.633895,23.4590381 L128.98919,5.84107996 L116.348008,5.84107996" id="Fill-2" fill="#FFFFFE"></path>
                <path d="M149.15714,27.9685131 L146.962341,9.35490377 C146.853194,8.42474129 149.728039,6.82859136 151.421867,6.47117809 L151.421867,5.84070997 L138.912403,5.84070997 L141.513454,28.0772911 C141.651462,29.1647006 138.806585,30.4914956 136.996209,30.8914581 L136.996209,31.529326 L153.702504,31.529326 L153.702504,30.8914581 C152.375339,30.6572525 149.299217,29.1351011 149.15714,27.9685131" id="Fill-3" fill="#FFFFFE"></path>
                <path d="M155.111438,6.47672799 C156.746807,6.85523086 159.599453,7.92266075 159.599453,9.01784012 L159.599453,28.3521959 C159.599453,29.4477453 156.746807,30.5151751 155.111438,30.893308 L155.111438,31.5285861 L171.701185,31.5285861 L171.701185,30.893308 C170.065816,30.5151751 167.21317,29.4477453 167.21317,28.3521959 L167.21317,9.01784012 C167.21317,7.92266075 170.065816,6.85523086 171.701185,6.47672799 L171.701185,5.84181995 L155.111438,5.84181995 L155.111438,6.47672799" id="Fill-4" fill="#FFFFFE"></path>
                <path d="M185.550765,28.3521959 L185.550765,5.84921981 L173.448663,5.84181995 L173.448663,6.47672799 C175.084032,6.85523086 177.936678,7.92266075 177.936678,9.01821011 L177.936678,28.3521959 C177.936678,29.4473753 175.084032,30.5148052 173.448663,30.893678 L173.448663,31.5285861 L190.03841,31.5285861 L190.03841,30.893678 C188.403411,30.5148052 185.550765,29.4473753 185.550765,28.3521959" id="Fill-5" fill="#FFFFFE"></path>
                <path d="M187.91132,5.83959999 L187.91132,6.47524802 L193.022774,7.64553597 C194.489056,7.94338036 196.461489,12.5057644 197.4564,15.5348973 L198.202676,15.5348973 L198.202676,5.84625987 L187.91132,5.83959999" id="Fill-6" fill="#FFFFFE"></path>
                <path d="M190.133498,17.251295 L187.615696,17.9239423 L187.615696,18.527401 L190.133498,19.2000483 C191.07328,19.4357339 192.905486,23.2803314 192.943965,23.7990617 L193.685801,23.7990617 L193.685801,12.6522817 L192.943965,12.6522817 C192.905486,13.1713819 191.07328,17.0159794 190.133498,17.251295" id="Fill-7" fill="#FFFFFE"></path>
                <path d="M9.67309777,9.38850089 C9.22096403,9.9079737 8.66302012,10.3192168 7.99924931,10.6222426 C7.33547849,10.9252685 6.57071055,11.0767791 5.70492253,11.0767791 C4.91609344,11.0767791 4.18739946,10.9469128 3.51881871,10.6871764 C2.85023796,10.42744 2.27064968,10.0594856 1.78003647,9.58330222 C1.28942326,9.10711881 0.904634353,8.53715025 0.625658214,7.87337943 C0.346682074,7.20960862 0.207196097,6.4785097 0.207196097,5.68006075 C0.207196097,4.86237206 0.349087005,4.12165343 0.632873078,3.45788261 C0.916659151,2.7941118 1.30866285,2.2289531 1.80889592,1.76238955 C2.309129,1.29582601 2.89593208,0.937491342 3.56932276,0.687374803 C4.24271344,0.437258265 4.9690025,0.312201871 5.74821171,0.312201871 C6.46970173,0.312201871 7.17915627,0.439663195 7.87659662,0.694589668 C8.57403697,0.94951614 9.13919567,1.32228039 9.57208968,1.8128936 L7.89824121,3.48674207 C7.66736441,3.16928646 7.36434314,2.93360326 6.98916834,2.77968539 C6.61399353,2.62576752 6.22920462,2.54880974 5.83479008,2.54880974 C5.40189607,2.54880974 5.00508252,2.62817245 4.64433751,2.78690025 C4.2835925,2.94562806 3.97335645,3.16447674 3.71362004,3.44345288 C3.45388364,3.72242902 3.25186946,4.05190452 3.10757146,4.43188926 C2.96327346,4.811874 2.89112554,5.22792701 2.89112554,5.68006075 C2.89112554,6.14181436 2.96327346,6.56508215 3.10757146,6.94987683 C3.25186946,7.3346715 3.45147871,7.664147 3.70640518,7.93831321 C3.96133165,8.21247941 4.26675784,8.42651824 4.62269292,8.58043611 C4.97862799,8.73435398 5.36822676,8.81131176 5.7915009,8.81131176 C6.28211411,8.81131176 6.71019176,8.71511454 7.0757467,8.5227172 C7.44130165,8.33031986 7.73470318,8.08020707 7.95596012,7.77237133 L9.67309777,9.38850089 Z M15.2484857,5.5501932 C15.1426672,5.5213336 15.0392552,5.50209415 14.9382466,5.49247428 C14.837238,5.48285442 14.7386358,5.47804456 14.6424372,5.47804456 C14.3249816,5.47804456 14.0580343,5.53576289 13.8415872,5.65120129 C13.6251402,5.7666397 13.4519852,5.90612567 13.322117,6.06966341 C13.1922488,6.23320115 13.0984565,6.41116601 13.0407373,6.60356335 C12.9830181,6.79596069 12.954159,6.96430583 12.954159,7.10860384 L12.954159,10.8026142 L10.5876835,10.8026142 L10.5876835,3.61660962 L12.8675806,3.61660962 L12.8675806,4.65555005 L12.8964401,4.65555005 C13.0792175,4.28999511 13.33895,3.99178371 13.6756454,3.7609069 C14.0123407,3.5300301 14.4019395,3.41459343 14.8444534,3.41459343 C14.940652,3.41459343 15.0344443,3.41940329 15.1258331,3.42902316 C15.2172218,3.43864302 15.2917746,3.45307261 15.3494938,3.47231234 L15.2484857,5.5501932 Z M20.9826007,6.38711743 C20.9826007,6.01194262 20.8647591,5.68968191 20.6290724,5.42032564 C20.3933856,5.15096937 20.0398608,5.01629325 19.5684874,5.01629325 C19.3376106,5.01629325 19.1259767,5.05236721 18.9335793,5.12451621 C18.741182,5.19666522 18.5728368,5.29526737 18.4285388,5.42032564 C18.2842408,5.54538391 18.1688042,5.69208468 18.0822254,5.86043235 C17.9956466,6.02878002 17.9475479,6.20433996 17.9379281,6.38711743 L20.9826007,6.38711743 Z M23.1614897,7.2961903 L23.1614897,7.58478487 C23.1614897,7.68098354 23.1566798,7.7723709 23.1470599,7.8589497 L17.9379281,7.8589497 C17.9571678,8.06096691 18.0172911,8.24374164 18.1182997,8.40727937 C18.2193083,8.57081711 18.3491745,8.71270802 18.5079023,8.83295635 C18.6666301,8.95320469 18.844595,9.04699699 19.0418023,9.11433605 C19.2390096,9.18167512 19.4434287,9.21534415 19.6550657,9.21534415 C20.0302405,9.21534415 20.3476914,9.14560116 20.6074278,9.00611309 C20.8671642,8.86662502 21.0787981,8.68625522 21.2423358,8.46499829 L22.8873248,9.50393871 C22.5506295,9.99455192 22.1057173,10.372126 21.552575,10.6366724 C20.9994326,10.9012187 20.3573162,11.0334899 19.6262063,11.0334899 C19.0874937,11.0334899 18.5776484,10.9493173 18.0966551,10.7809697 C17.6156617,10.612622 17.1947989,10.3673191 16.8340539,10.0450535 C16.4733089,9.72278798 16.1895271,9.32597442 15.9826999,8.85460095 C15.7758728,8.38322747 15.6724608,7.844523 15.6724608,7.23847139 C15.6724608,6.65165951 15.7734678,6.12016984 15.975485,5.64398643 C16.1775023,5.16780302 16.4516643,4.76377467 16.7979796,4.43188926 C17.1442948,4.10000386 17.553133,3.84267628 18.0245064,3.65989881 C18.4958799,3.47712134 19.0057252,3.38573397 19.5540576,3.38573397 C20.0831503,3.38573397 20.5689463,3.4747164 21.0114602,3.65268394 C21.4539741,3.83065148 21.8339531,4.08797906 22.1514087,4.4246744 C22.4688643,4.76136974 22.7165722,5.17020795 22.8945397,5.65120129 C23.0725072,6.13219464 23.1614897,6.68051882 23.1614897,7.2961903 Z M28.666172,7.67136324 L28.3631477,7.67136324 C28.1034113,7.67136324 27.8412738,7.68338789 27.5767275,7.70743756 C27.3121812,7.73148722 27.076498,7.77718091 26.8696708,7.84451997 C26.6628437,7.91185904 26.4920936,8.0104612 26.3574155,8.1403294 C26.2227373,8.2701976 26.1553993,8.44094768 26.1553993,8.65258475 C26.1553993,8.78726289 26.1866634,8.90269956 26.2491925,8.99889823 C26.3117216,9.0950969 26.3910844,9.17205468 26.487283,9.22977388 C26.5834817,9.28749308 26.6941085,9.3283769 26.8191668,9.35242657 C26.944225,9.37647624 27.0644716,9.38850089 27.17991,9.38850089 C27.6609033,9.38850089 28.0288577,9.2562297 28.2837842,8.99168336 C28.5387107,8.72713702 28.666172,8.36880236 28.666172,7.91666862 L28.666172,7.67136324 Z M24.3228238,4.59783114 C24.7460979,4.19379673 25.2391087,3.89077547 25.8018709,3.68875826 C26.3646331,3.48674106 26.9394116,3.38573397 27.5262235,3.38573397 C28.1322751,3.38573397 28.6445253,3.46028682 29.0629895,3.60939476 C29.4814537,3.75850269 29.8205489,3.98937604 30.0802853,4.30202171 C30.3400217,4.61466738 30.5300113,5.00907601 30.6502596,5.48525942 C30.7705079,5.96144283 30.8306312,6.52660153 30.8306312,7.18075248 L30.8306312,10.8026142 L28.666172,10.8026142 L28.666172,10.0378387 L28.6228828,10.0378387 C28.4401053,10.3360545 28.1635383,10.5669279 27.7931734,10.7304656 C27.4228085,10.8940033 27.0211851,10.975771 26.5882911,10.975771 C26.2996951,10.975771 26.0014837,10.9372921 25.693648,10.8603332 C25.3858122,10.7833742 25.1044353,10.6583178 24.8495089,10.4851602 C24.5945824,10.3120026 24.3853534,10.0811293 24.2218157,9.79253328 C24.058278,9.50393727 23.9765103,9.14800754 23.9765103,8.72473339 C23.9765103,8.20526058 24.1184012,7.78680265 24.4021873,7.46934704 C24.6859734,7.15189144 25.0515228,6.90658851 25.4988466,6.73343091 C25.9461705,6.5602733 26.4439911,6.44483663 26.9923235,6.38711743 C27.5406559,6.32939823 28.0745505,6.30053906 28.5940233,6.30053906 L28.5940233,6.18510124 C28.5940233,5.82916616 28.4689669,5.56702872 28.2188504,5.39868105 C27.9687339,5.23033338 27.6609027,5.14616081 27.2953478,5.14616081 C26.9586525,5.14616081 26.6339868,5.21830873 26.3213411,5.36260673 C26.0086955,5.50690473 25.7417482,5.68005974 25.5204912,5.88207694 L24.3228238,4.59783114 Z M34.9356299,5.39146619 L34.9356299,8.13311454 C34.9356299,8.46980988 35.000563,8.7223276 35.1304312,8.89067527 C35.2602994,9.05902294 35.4935777,9.14319551 35.830273,9.14319551 C35.9457114,9.14319551 36.0683629,9.13357579 36.1982311,9.11433605 C36.3280993,9.09509632 36.4363212,9.06623715 36.5229,9.02775768 L36.5517594,10.7593251 C36.3882217,10.8170443 36.1813977,10.8675478 35.9312811,10.9108372 C35.6811646,10.9541266 35.4310518,10.975771 35.1809352,10.975771 C34.6999419,10.975771 34.2959136,10.9156477 33.9688381,10.7953994 C33.6417626,10.675151 33.3796252,10.501996 33.1824179,10.2759292 C32.9852106,10.0498623 32.8433197,9.78051007 32.7567409,9.46786439 C32.6701621,9.15521872 32.6268734,8.80650378 32.6268734,8.4217091 L32.6268734,5.39146619 L31.4724951,5.39146619 L31.4724951,3.61660962 L32.6124436,3.61660962 L32.6124436,1.72631523 L34.9356299,1.72631523 L34.9356299,3.61660962 L36.6239081,3.61660962 L36.6239081,5.39146619 L34.9356299,5.39146619 Z M40.2945719,1.32228284 C40.2945719,1.50506031 40.258498,1.67581039 40.186349,1.83453819 C40.1142,1.993266 40.0180027,2.13034704 39.8977544,2.24578545 C39.7775061,2.36122385 39.6332102,2.45261121 39.4648625,2.51995028 C39.2965149,2.58728935 39.1209549,2.62095838 38.9381775,2.62095838 C38.5533828,2.62095838 38.2311221,2.49349705 37.9713857,2.23857058 C37.7116493,1.98364411 37.581783,1.67821792 37.581783,1.32228284 C37.581783,1.14912524 37.615452,0.983185024 37.6827911,0.824457221 C37.7501302,0.665729418 37.8463274,0.528648371 37.9713857,0.413209968 C38.096444,0.297771566 38.2407398,0.203979271 38.4042775,0.131830269 C38.5678153,0.0596812674 38.7457801,0.0236073077 38.9381775,0.0236073077 C39.1209549,0.0236073077 39.2965149,0.0572763367 39.4648625,0.124615405 C39.6332102,0.191954473 39.7775061,0.283341838 39.8977544,0.39878024 C40.0180027,0.514218643 40.1142,0.651299689 40.186349,0.810027493 C40.258498,0.968755296 40.2945719,1.13950537 40.2945719,1.32228284 Z M37.7549398,10.8026142 L37.7549398,3.61660962 L40.1214152,3.61660962 L40.1214152,10.8026142 L37.7549398,10.8026142 Z M46.4327193,10.8026142 L43.8786574,10.8026142 L41.0504307,3.61660962 L43.6622115,3.61660962 L45.1773329,8.27741182 L45.2206221,8.27741182 L46.7357436,3.61660962 L49.260946,3.61660962 L46.4327193,10.8026142 Z M54.780058,6.38711743 C54.780058,6.01194262 54.6622164,5.68968191 54.4265297,5.42032564 C54.190843,5.15096937 53.8373182,5.01629325 53.3659447,5.01629325 C53.1350679,5.01629325 52.923434,5.05236721 52.7310366,5.12451621 C52.5386393,5.19666522 52.3702942,5.29526737 52.2259961,5.42032564 C52.0816981,5.54538391 51.9662615,5.69208468 51.8796827,5.86043235 C51.7931039,6.02878002 51.7450053,6.20433996 51.7353854,6.38711743 L54.780058,6.38711743 Z M56.958947,7.2961903 L56.958947,7.58478487 C56.958947,7.68098354 56.9541371,7.7723709 56.9445173,7.8589497 L51.7353854,7.8589497 C51.7546251,8.06096691 51.8147484,8.24374164 51.915757,8.40727937 C52.0167656,8.57081711 52.1466318,8.71270802 52.3053597,8.83295635 C52.4640875,8.95320469 52.6420523,9.04699699 52.8392596,9.11433605 C53.0364669,9.18167512 53.240886,9.21534415 53.452523,9.21534415 C53.8276979,9.21534415 54.1451487,9.14560116 54.4048851,9.00611309 C54.6646215,8.86662502 54.8762554,8.68625522 55.0397931,8.46499829 L56.6847822,9.50393871 C56.3480868,9.99455192 55.9031746,10.372126 55.3500323,10.6366724 C54.79689,10.9012187 54.1547735,11.0334899 53.4236636,11.0334899 C52.884951,11.0334899 52.3751057,10.9493173 51.8941124,10.7809697 C51.4131191,10.612622 50.9922562,10.3673191 50.6315112,10.0450535 C50.2707662,9.72278798 49.9869844,9.32597442 49.7801572,8.85460095 C49.5733301,8.38322747 49.4699181,7.844523 49.4699181,7.23847139 C49.4699181,6.65165951 49.5709252,6.12016984 49.7729424,5.64398643 C49.9749596,5.16780302 50.2491217,4.76377467 50.5954369,4.43188926 C50.9417521,4.10000386 51.3505903,3.84267628 51.8219638,3.65989881 C52.2933372,3.47712134 52.8031825,3.38573397 53.3515149,3.38573397 C53.8806076,3.38573397 54.3664036,3.4747164 54.8089175,3.65268394 C55.2514314,3.83065148 55.6314104,4.08797906 55.948866,4.4246744 C56.2663216,4.76136974 56.5140295,5.17020795 56.691997,5.65120129 C56.8699646,6.13219464 56.958947,6.68051882 56.958947,7.2961903 Z M65.6742438,7.42605786 C65.6742438,8.0513492 65.563617,8.5924586 65.3423601,9.04940228 C65.1211031,9.50634595 64.8252966,9.88392006 64.4549318,10.1821359 C64.0845669,10.4803518 63.663704,10.7040104 63.1923306,10.8531183 C62.7209571,11.0022262 62.2351611,11.0767791 61.734928,11.0767791 C61.2731744,11.0767791 60.8330721,11.0166558 60.4146079,10.8964075 C59.9961437,10.7761591 59.6161646,10.6054091 59.2746594,10.3841521 C58.9331541,10.1628952 58.6397525,9.89113803 58.3944459,9.56887249 C58.1491393,9.24660695 57.9687695,8.88346242 57.8533311,8.47942801 L60.0610795,7.80123079 C60.1668981,8.15716586 60.3665073,8.4505674 60.6599133,8.68144421 C60.9533192,8.91232101 61.3020342,9.02775768 61.7060686,9.02775768 C62.1197228,9.02775768 62.4780575,8.90270129 62.7810833,8.65258475 C63.0841091,8.40246821 63.2356197,8.03210889 63.2356197,7.54149568 C63.2356197,7.24327981 63.1730915,6.99316702 63.0480333,6.79114982 C62.922975,6.58913261 62.7618447,6.42800226 62.5646374,6.30775392 C62.3674301,6.18750559 62.1437716,6.10333302 61.893655,6.05523368 C61.6435385,6.00713435 61.3934257,5.98308504 61.1433092,5.98308504 C60.7777542,5.98308504 60.3617012,6.02396886 59.8951377,6.10573773 C59.4285741,6.1875066 59.0125211,6.29572848 58.6469662,6.43040661 L58.8922716,0.586366706 L65.1547736,0.586366706 L65.1547736,2.66424756 L61.0423011,2.66424756 L60.9557227,4.28037712 C61.1096406,4.24189765 61.2803906,4.21544341 61.467978,4.20101361 C61.6555654,4.18658381 61.8263155,4.17936902 61.9802334,4.17936902 C62.4900863,4.17936902 62.9710725,4.24670708 63.4232062,4.38138521 C63.87534,4.51606335 64.2673436,4.72048246 64.5992291,4.99464866 C64.9311145,5.26881487 65.1932519,5.60791009 65.3856492,6.0119445 C65.5780466,6.41597891 65.6742438,6.88734531 65.6742438,7.42605786 Z M74.6709203,5.66563102 C74.6709203,6.38712104 74.5987724,7.0749312 74.4544744,7.72908215 C74.3101764,8.3832331 74.0793031,8.95801152 73.7618474,9.45343467 C73.4443918,9.94885781 73.0331487,10.3432664 72.5281057,10.6366724 C72.0230627,10.9300783 71.4098054,11.0767791 70.6883153,11.0767791 C69.9668253,11.0767791 69.3511631,10.9300783 68.8413101,10.6366724 C68.3314572,10.3432664 67.9154042,9.94885781 67.5931387,9.45343467 C67.2708731,8.95801152 67.0375948,8.3832331 66.8932968,7.72908215 C66.7489988,7.0749312 66.6768509,6.38712104 66.6768509,5.66563102 C66.6768509,4.94414101 66.7489988,4.25873577 66.8932968,3.60939476 C67.0375948,2.96005374 67.2708731,2.39249011 67.5931387,1.90668683 C67.9154042,1.42088356 68.3314572,1.03368972 68.8413101,0.745093716 C69.3511631,0.45649771 69.9668253,0.312201871 70.6883153,0.312201871 C71.4098054,0.312201871 72.0230627,0.45649771 72.5281057,0.745093716 C73.0331487,1.03368972 73.4443918,1.42088356 73.7618474,1.90668683 C74.0793031,2.39249011 74.3101764,2.96005374 74.4544744,3.60939476 C74.5987724,4.25873577 74.6709203,4.94414101 74.6709203,5.66563102 Z M72.1890071,5.66563102 C72.1890071,5.34817541 72.1697676,4.99705554 72.1312882,4.61226087 C72.0928087,4.22746619 72.0206608,3.86913152 71.9148422,3.53724612 C71.8090237,3.20536071 71.6575131,2.92638875 71.4603058,2.70032188 C71.2630985,2.47425501 71.005771,2.36122327 70.6883153,2.36122327 C70.3708597,2.36122327 70.1111272,2.47425501 69.90911,2.70032188 C69.7070928,2.92638875 69.5507723,3.20536071 69.4401439,3.53724612 C69.3295154,3.86913152 69.2549625,4.22746619 69.2164831,4.61226087 C69.1780036,4.99705554 69.1587642,5.34817541 69.1587642,5.66563102 C69.1587642,5.9927065 69.1780036,6.35104116 69.2164831,6.74064577 C69.2549625,7.13025038 69.3295154,7.49098998 69.4401439,7.82287538 C69.5507723,8.15476079 69.7070928,8.43373274 69.90911,8.65979962 C70.1111272,8.88586649 70.3708597,8.99889823 70.6883153,8.99889823 C71.005771,8.99889823 71.2630985,8.88586649 71.4603058,8.65979962 C71.6575131,8.43373274 71.8090237,8.15476079 71.9148422,7.82287538 C72.0206608,7.49098998 72.0928087,7.13025038 72.1312882,6.74064577 C72.1697676,6.35104116 72.1890071,5.9927065 72.1890071,5.66563102 Z" id="Creative50-" fill="#FFFFFE"></path>
                <path d="M4.52168482,21.005875 C4.37738682,20.7268989 4.15853813,20.4984305 3.86513219,20.3204629 C3.57172625,20.1424954 3.23744089,20.053513 2.86226608,20.053513 C2.68910848,20.053513 2.51595347,20.0727524 2.34279587,20.1112319 C2.16963826,20.1497114 2.0157227,20.2122396 1.88104456,20.2988184 C1.74636643,20.3853972 1.63814455,20.496024 1.55637568,20.6307021 C1.47460681,20.7653802 1.43372299,20.9241057 1.43372299,21.1068831 C1.43372299,21.4243387 1.56358925,21.6672367 1.82332565,21.8355844 C2.08306206,22.0039321 2.49190027,22.145823 3.04985255,22.2612614 C3.8483015,22.4247991 4.4375095,22.6628873 4.81749425,22.9755329 C5.19747899,23.2881786 5.38746851,23.7090415 5.38746851,24.2381341 C5.38746851,24.6229288 5.31291566,24.9475945 5.16380772,25.2121408 C5.01469979,25.4766871 4.8199004,25.6931309 4.57940373,25.8614786 C4.33890706,26.0298262 4.0671499,26.1500728 3.76412409,26.2222218 C3.46109828,26.2943708 3.15567209,26.3304447 2.84783635,26.3304447 C2.33798341,26.3304447 1.84256769,26.2246278 1.36157435,26.0129907 C0.880581006,25.8013536 0.486172381,25.4694732 0.17833664,25.0173395 L0.957541961,24.4401503 C1.13069957,24.7383662 1.38562221,24.988479 1.72231755,25.1904962 C2.0590129,25.3925134 2.42937221,25.4935205 2.83340662,25.4935205 C3.04504369,25.4935205 3.24705787,25.4742811 3.43945521,25.4358016 C3.63185254,25.3973221 3.80019769,25.3299841 3.94449569,25.2337854 C4.0887937,25.1375867 4.20423037,25.0149353 4.29080917,24.8658273 C4.37738797,24.7167194 4.42067672,24.5315397 4.42067672,24.3102828 C4.42067672,23.9543477 4.24992665,23.6874004 3.90842137,23.5094329 C3.5669161,23.3314653 3.07390532,23.1655251 2.42937423,23.0116073 C2.22735703,22.9635079 2.0133182,22.9033847 1.78725133,22.8312356 C1.56118446,22.7590866 1.35195549,22.6532697 1.15955816,22.5137816 C0.967160818,22.3742936 0.808435396,22.1987336 0.683377126,21.9870966 C0.558318857,21.7754595 0.49579066,21.5109171 0.49579066,21.1934615 C0.49579066,20.8471463 0.563128718,20.5513398 0.697806854,20.3060332 C0.832484991,20.0607266 1.01285479,19.8587124 1.23892166,19.6999846 C1.46498853,19.5412568 1.72231611,19.4234152 2.01091212,19.3464563 C2.29950812,19.2694974 2.59771952,19.2310185 2.90555526,19.2310185 C3.37692874,19.2310185 3.83386556,19.3368354 4.27637944,19.5484725 C4.71889332,19.7601096 5.05077375,20.058321 5.27203068,20.4431156 L4.52168482,21.005875 Z M12.2189088,26.157288 C12.1996691,25.9745105 12.1852395,25.7724963 12.1756196,25.5512394 C12.1659998,25.3299825 12.1611899,25.1472077 12.1611899,25.0029097 L12.1323304,25.0029097 C11.9399331,25.3973243 11.6272921,25.7171801 11.1943981,25.9624867 C10.7615041,26.2077933 10.3045673,26.3304447 9.82357394,26.3304447 C8.96740579,26.3304447 8.32528931,26.0755221 7.89720523,25.5656691 C7.46912115,25.0558162 7.25508233,24.3824356 7.25508233,23.5455072 L7.25508233,19.4041752 L8.23630384,19.4041752 L8.23630384,23.1414748 C8.23630384,23.4974099 8.26516301,23.8196706 8.32288221,24.1082666 C8.38060141,24.3968626 8.47920357,24.6445705 8.61869164,24.8513976 C8.75817971,25.0582247 8.9457643,25.2193551 9.18145104,25.3347935 C9.41713778,25.4502319 9.71294424,25.5079502 10.0688793,25.5079502 C10.3286157,25.5079502 10.5811334,25.4550418 10.82644,25.3492232 C11.0717467,25.2434047 11.2905953,25.0822743 11.4829927,24.8658273 C11.67539,24.6493803 11.8293056,24.3752182 11.944744,24.0433328 C12.0601824,23.7114474 12.1179007,23.3194437 12.1179007,22.86731 L12.1179007,19.4041752 L13.0991222,19.4041752 L13.0991222,24.671026 C13.0991222,24.8538035 13.1039321,25.0894867 13.113552,25.3780827 C13.1231718,25.6666787 13.1376014,25.9264112 13.1568411,26.157288 L12.2189088,26.157288 Z M16.6550142,29.6204228 L15.6737927,29.6204228 L15.6737927,19.4041752 L16.6550142,19.4041752 L16.6550142,20.5729832 L16.6983034,20.5729832 C16.9772796,20.1304693 17.3500438,19.796184 17.8166074,19.5701171 C18.2831709,19.3440502 18.7569422,19.2310185 19.2379356,19.2310185 C19.7670283,19.2310185 20.2456095,19.3224058 20.6736935,19.5051833 C21.1017776,19.6879608 21.4673271,19.9380736 21.7703529,20.2555292 C22.0733787,20.5729848 22.3090619,20.948154 22.4774096,21.381048 C22.6457572,21.813942 22.7299298,22.2804985 22.7299298,22.7807316 C22.7299298,23.2809647 22.6457572,23.7475212 22.4774096,24.1804152 C22.3090619,24.6133092 22.0733787,24.9884784 21.7703529,25.305934 C21.4673271,25.6233896 21.1017776,25.8735024 20.6736935,26.0562799 C20.2456095,26.2390574 19.7670283,26.3304447 19.2379356,26.3304447 C18.7569422,26.3304447 18.2831709,26.217413 17.8166074,25.9913461 C17.3500438,25.7652792 16.9772796,25.4406136 16.6983034,25.0173395 L16.6550142,25.0173395 L16.6550142,29.6204228 Z M21.6909894,22.7807316 C21.6909894,22.4055568 21.633271,22.052032 21.5178326,21.7201466 C21.4023942,21.3882612 21.236454,21.0996695 21.020007,20.8543629 C20.80356,20.6090563 20.5366127,20.4142569 20.2191571,20.2699589 C19.9017015,20.1256609 19.5409619,20.053513 19.1369275,20.053513 C18.7617527,20.053513 18.4154427,20.123256 18.0979871,20.262744 C17.7805315,20.4022321 17.5063694,20.5946266 17.2754926,20.8399332 C17.0446158,21.0852398 16.864246,21.3738314 16.7343778,21.7057169 C16.6045095,22.0376023 16.5395764,22.3959369 16.5395764,22.7807316 C16.5395764,23.1655263 16.6045095,23.5238609 16.7343778,23.8557463 C16.864246,24.1876318 17.0446158,24.4738185 17.2754926,24.7143152 C17.5063694,24.9548118 17.7805315,25.1448014 18.0979871,25.2842894 C18.4154427,25.4237775 18.7617527,25.4935205 19.1369275,25.4935205 C19.5409619,25.4935205 19.9017015,25.4237775 20.2191571,25.2842894 C20.5366127,25.1448014 20.80356,24.9524069 21.020007,24.7071003 C21.236454,24.4617937 21.4023942,24.173202 21.5178326,23.8413166 C21.633271,23.5094312 21.6909894,23.1559064 21.6909894,22.7807316 Z M25.7952111,29.6204228 L24.8139895,29.6204228 L24.8139895,19.4041752 L25.7952111,19.4041752 L25.7952111,20.5729832 L25.8385002,20.5729832 C26.1174764,20.1304693 26.4902406,19.796184 26.9568042,19.5701171 C27.4233677,19.3440502 27.8971391,19.2310185 28.3781324,19.2310185 C28.9072251,19.2310185 29.3858063,19.3224058 29.8138904,19.5051833 C30.2419744,19.6879608 30.6075239,19.9380736 30.9105497,20.2555292 C31.2135755,20.5729848 31.4492587,20.948154 31.6176064,21.381048 C31.785954,21.813942 31.8701266,22.2804985 31.8701266,22.7807316 C31.8701266,23.2809647 31.785954,23.7475212 31.6176064,24.1804152 C31.4492587,24.6133092 31.2135755,24.9884784 30.9105497,25.305934 C30.6075239,25.6233896 30.2419744,25.8735024 29.8138904,26.0562799 C29.3858063,26.2390574 28.9072251,26.3304447 28.3781324,26.3304447 C27.8971391,26.3304447 27.4233677,26.217413 26.9568042,25.9913461 C26.4902406,25.7652792 26.1174764,25.4406136 25.8385002,25.0173395 L25.7952111,25.0173395 L25.7952111,29.6204228 Z M30.8311862,22.7807316 C30.8311862,22.4055568 30.7734679,22.052032 30.6580295,21.7201466 C30.5425911,21.3882612 30.3766508,21.0996695 30.1602038,20.8543629 C29.9437568,20.6090563 29.6768095,20.4142569 29.3593539,20.2699589 C29.0418983,20.1256609 28.6811587,20.053513 28.2771243,20.053513 C27.9019495,20.053513 27.5556395,20.123256 27.2381839,20.262744 C26.9207283,20.4022321 26.6465662,20.5946266 26.4156894,20.8399332 C26.1848126,21.0852398 26.0044428,21.3738314 25.8745746,21.7057169 C25.7447064,22.0376023 25.6797732,22.3959369 25.6797732,22.7807316 C25.6797732,23.1655263 25.7447064,23.5238609 25.8745746,23.8557463 C26.0044428,24.1876318 26.1848126,24.4738185 26.4156894,24.7143152 C26.6465662,24.9548118 26.9207283,25.1448014 27.2381839,25.2842894 C27.5556395,25.4237775 27.9019495,25.4935205 28.2771243,25.4935205 C28.6811587,25.4935205 29.0418983,25.4237775 29.3593539,25.2842894 C29.6768095,25.1448014 29.9437568,24.9524069 30.1602038,24.7071003 C30.3766508,24.4617937 30.5425911,24.173202 30.6580295,23.8413166 C30.7734679,23.5094312 30.8311862,23.1559064 30.8311862,22.7807316 Z M41.0579415,22.7807316 C41.0579415,23.2905845 40.9689591,23.761951 40.7909916,24.194845 C40.613024,24.627739 40.3653162,25.0029082 40.0478606,25.3203638 C39.730405,25.6378194 39.3504259,25.8855272 38.907912,26.0634948 C38.4653982,26.2414623 37.9796022,26.3304447 37.4505095,26.3304447 C36.9310367,26.3304447 36.4500506,26.2414623 36.0075367,26.0634948 C35.5650228,25.8855272 35.1850438,25.6378194 34.8675882,25.3203638 C34.5501325,25.0029082 34.3024247,24.627739 34.1244572,24.194845 C33.9464896,23.761951 33.8575072,23.2905845 33.8575072,22.7807316 C33.8575072,22.2708787 33.9464896,21.7995122 34.1244572,21.3666182 C34.3024247,20.9337242 34.5501325,20.5585551 34.8675882,20.2410994 C35.1850438,19.9236438 35.5650228,19.675936 36.0075367,19.4979684 C36.4500506,19.3200009 36.9310367,19.2310185 37.4505095,19.2310185 C37.9796022,19.2310185 38.4653982,19.3200009 38.907912,19.4979684 C39.3504259,19.675936 39.730405,19.9236438 40.0478606,20.2410994 C40.3653162,20.5585551 40.613024,20.9337242 40.7909916,21.3666182 C40.9689591,21.7995122 41.0579415,22.2708787 41.0579415,22.7807316 Z M40.0190011,22.7807316 C40.0190011,22.4055568 39.9588778,22.052032 39.8386295,21.7201466 C39.7183812,21.3882612 39.5476311,21.0996695 39.3263742,20.8543629 C39.1051172,20.6090563 38.835765,20.4142569 38.5183094,20.2699589 C38.2008538,20.1256609 37.844924,20.053513 37.4505095,20.053513 C37.056095,20.053513 36.7025701,20.1256609 36.3899245,20.2699589 C36.0772788,20.4142569 35.8103315,20.6090563 35.5890746,20.8543629 C35.3678176,21.0996695 35.1970675,21.3882612 35.0768192,21.7201466 C34.9565709,22.052032 34.8964476,22.4055568 34.8964476,22.7807316 C34.8964476,23.1559064 34.9565709,23.5094312 35.0768192,23.8413166 C35.1970675,24.173202 35.3678176,24.4617937 35.5890746,24.7071003 C35.8103315,24.9524069 36.0772788,25.1448014 36.3899245,25.2842894 C36.7025701,25.4237775 37.056095,25.4935205 37.4505095,25.4935205 C37.844924,25.4935205 38.2008538,25.4237775 38.5183094,25.2842894 C38.835765,25.1448014 39.1051172,24.9524069 39.3263742,24.7071003 C39.5476311,24.4617937 39.7183812,24.173202 39.8386295,23.8413166 C39.9588778,23.5094312 40.0190011,23.1559064 40.0190011,22.7807316 Z M43.1420013,20.8904372 C43.1420013,20.7076597 43.1371914,20.4719765 43.1275715,20.1833805 C43.1179517,19.8947845 43.1035221,19.635052 43.0842824,19.4041752 L44.0222147,19.4041752 C44.0414544,19.5869527 44.055884,19.7889669 44.0655039,20.0102238 C44.0751237,20.2314807 44.0799336,20.4142555 44.0799336,20.5585535 L44.1087931,20.5585535 C44.3011904,20.1641389 44.5897821,19.8442831 44.9745768,19.5989765 C45.3593714,19.3536699 45.7922589,19.2310185 46.2732523,19.2310185 C46.3983106,19.2310185 46.5113423,19.2358283 46.6123509,19.2454482 C46.7133595,19.2550681 46.8167715,19.2743075 46.9225901,19.3031671 L46.7927225,20.2266697 C46.7350033,20.20743 46.6388061,20.1881905 46.5041279,20.1689508 C46.3694498,20.1497111 46.2347737,20.1400913 46.1000955,20.1400913 C45.8403591,20.1400913 45.5902464,20.18819 45.3497497,20.2843886 C45.109253,20.3805873 44.900024,20.5320979 44.7220565,20.7389251 C44.544089,20.9457522 44.3997931,21.2102946 44.2891647,21.5325601 C44.1785362,21.8548257 44.1232228,22.2420195 44.1232228,22.6941532 L44.1232228,26.157288 L43.1420013,26.157288 L43.1420013,20.8904372 Z M52.6184108,20.2266697 L50.7136866,20.2266697 L50.7136866,24.1659855 C50.7136866,24.416102 50.7377359,24.6229261 50.7858353,24.7864638 C50.8339346,24.9500016 50.9036776,25.0774629 50.9950663,25.1688516 C51.0864551,25.2602403 51.194677,25.3227685 51.3197352,25.3564381 C51.4447935,25.3901076 51.5794696,25.4069421 51.7237676,25.4069421 C51.8584457,25.4069421 52.0003367,25.3877027 52.1494446,25.3492232 C52.2985525,25.3107437 52.4404434,25.2578353 52.5751216,25.1904962 L52.6184108,26.0418502 C52.4452532,26.1091892 52.2648834,26.1596928 52.0772959,26.1933623 C51.8897085,26.2270318 51.6852894,26.2438664 51.4640325,26.2438664 C51.281255,26.2438664 51.0888606,26.2198171 50.8868434,26.1717177 C50.6848262,26.1236184 50.4972416,26.032231 50.324084,25.8975529 C50.1509264,25.7628747 50.0090355,25.5801 49.898407,25.3492232 C49.7877785,25.1183464 49.7324651,24.8153251 49.7324651,24.4401503 L49.7324651,20.2266697 L48.3327815,20.2266697 L48.3327815,19.4041752 L49.7324651,19.4041752 L49.7324651,17.4994511 L50.7136866,17.4994511 L50.7136866,19.4041752 L52.6184108,19.4041752 L52.6184108,20.2266697 Z M59.5696178,22.2612614 C59.5407582,21.6263502 59.3363391,21.0996704 58.9563544,20.6812062 C58.5763696,20.2627419 58.0352602,20.053513 57.3330099,20.053513 C57.0059345,20.053513 56.7029132,20.1136362 56.4239371,20.2338846 C56.1449609,20.3541329 55.899658,20.5176682 55.6880209,20.7244953 C55.4763839,20.9313225 55.3080387,21.1670057 55.1829804,21.431552 C55.0579222,21.6960984 54.9857743,21.9726654 54.9665345,22.2612614 L59.5696178,22.2612614 Z M60.565269,22.5787154 L60.565269,22.7951613 C60.565269,22.8721203 60.5604592,22.9538879 60.5508393,23.0404667 L54.9521048,23.0404667 C54.9617247,23.377162 55.0290627,23.6946129 55.154121,23.9928288 C55.2791793,24.2910446 55.4523343,24.5507771 55.6735912,24.7720341 C55.8948481,24.993291 56.1545806,25.168851 56.4527965,25.2987192 C56.7510124,25.4285874 57.0732731,25.4935205 57.4195883,25.4935205 C57.9294413,25.4935205 58.3695436,25.3756789 58.7399084,25.1399922 C59.1102733,24.9043054 59.3916502,24.6325483 59.5840475,24.3247125 L60.3199637,24.9019016 C59.9159293,25.4117546 59.4710171,25.777304 58.9852138,25.998561 C58.4994105,26.2198179 57.9775406,26.3304447 57.4195883,26.3304447 C56.9193552,26.3304447 56.4552036,26.2414623 56.0271195,26.0634948 C55.5990355,25.8855272 55.2310811,25.6378194 54.9232453,25.3203638 C54.6154096,25.0029082 54.3725116,24.627739 54.1945441,24.194845 C54.0165765,23.761951 53.9275941,23.2905845 53.9275941,22.7807316 C53.9275941,22.2708787 54.0141716,21.7995122 54.1873292,21.3666182 C54.3604868,20.9337242 54.6009799,20.5585551 54.9088156,20.2410994 C55.2166513,19.9236438 55.5773909,19.675936 55.9910452,19.4979684 C56.4046995,19.3200009 56.8520166,19.2310185 57.3330099,19.2310185 C57.8621026,19.2310185 58.3286592,19.3200009 58.7326936,19.4979684 C59.136728,19.675936 59.4734183,19.916429 59.7427745,20.2194549 C60.0121308,20.5224807 60.2165499,20.8760055 60.356038,21.2800399 C60.4955261,21.6840743 60.565269,22.1169618 60.565269,22.5787154 Z M68.5987057,25.0173395 C68.3101097,25.4502335 67.9349405,25.777304 67.4731869,25.998561 C67.0114333,26.2198179 66.535257,26.3304447 66.0446438,26.3304447 C65.5155511,26.3304447 65.03697,26.2390574 64.6088859,26.0562799 C64.1808018,25.8735024 63.8152523,25.6233896 63.5122265,25.305934 C63.2092007,24.9884784 62.9735175,24.6133092 62.8051699,24.1804152 C62.6368222,23.7475212 62.5526496,23.2809647 62.5526496,22.7807316 C62.5526496,22.2804985 62.6368222,21.813942 62.8051699,21.381048 C62.9735175,20.948154 63.2092007,20.5729848 63.5122265,20.2555292 C63.8152523,19.9380736 64.1808018,19.6879608 64.6088859,19.5051833 C65.03697,19.3224058 65.5155511,19.2310185 66.0446438,19.2310185 C66.535257,19.2310185 67.0114333,19.3440502 67.4731869,19.5701171 C67.9349405,19.796184 68.3101097,20.1304693 68.5987057,20.5729832 L68.6275652,20.5729832 L68.6275652,15.2484135 L69.6087867,15.2484135 L69.6087867,26.157288 L68.6275652,26.157288 L68.6275652,25.0173395 L68.5987057,25.0173395 Z M63.59159,22.7807316 C63.59159,23.1559064 63.6493084,23.5094312 63.7647468,23.8413166 C63.8801852,24.173202 64.0461254,24.4617937 64.2625724,24.7071003 C64.4790194,24.9524069 64.7459667,25.1448014 65.0634223,25.2842894 C65.3808779,25.4237775 65.7416175,25.4935205 66.1456519,25.4935205 C66.5208267,25.4935205 66.8671367,25.4237775 67.1845924,25.2842894 C67.502048,25.1448014 67.7762101,24.9548118 68.0070869,24.7143152 C68.2379637,24.4738185 68.4183335,24.1876318 68.5482017,23.8557463 C68.6780699,23.5238609 68.743003,23.1655263 68.743003,22.7807316 C68.743003,22.3959369 68.6780699,22.0376023 68.5482017,21.7057169 C68.4183335,21.3738314 68.2379637,21.0852398 68.0070869,20.8399332 C67.7762101,20.5946266 67.502048,20.4022321 67.1845924,20.262744 C66.8671367,20.123256 66.5208267,20.053513 66.1456519,20.053513 C65.7416175,20.053513 65.3808779,20.1256609 65.0634223,20.2699589 C64.7459667,20.4142569 64.4790194,20.6090563 64.2625724,20.8543629 C64.0461254,21.0996695 63.8801852,21.3882612 63.7647468,21.7201466 C63.6493084,22.052032 63.59159,22.4055568 63.59159,22.7807316 Z M77.3309482,25.0173395 L77.3309482,26.157288 L76.3497267,26.157288 L76.3497267,15.2484135 L77.3309482,15.2484135 L77.3309482,20.5729832 L77.3598077,20.5729832 C77.6484037,20.1304693 78.0235729,19.796184 78.4853265,19.5701171 C78.9470801,19.3440502 79.4232563,19.2310185 79.9138696,19.2310185 C80.4429622,19.2310185 80.9215434,19.3224058 81.3496275,19.5051833 C81.7777116,19.6879608 82.143261,19.9380736 82.4462868,20.2555292 C82.7493127,20.5729848 82.9849959,20.948154 83.1533435,21.381048 C83.3216912,21.813942 83.4058638,22.2804985 83.4058638,22.7807316 C83.4058638,23.2809647 83.3216912,23.7475212 83.1533435,24.1804152 C82.9849959,24.6133092 82.7493127,24.9884784 82.4462868,25.305934 C82.143261,25.6233896 81.7777116,25.8735024 81.3496275,26.0562799 C80.9215434,26.2390574 80.4429622,26.3304447 79.9138696,26.3304447 C79.4232563,26.3304447 78.9470801,26.2198179 78.4853265,25.998561 C78.0235729,25.777304 77.6484037,25.4502335 77.3598077,25.0173395 L77.3309482,25.0173395 Z M82.3669233,22.7807316 C82.3669233,22.4055568 82.309205,22.052032 82.1937666,21.7201466 C82.0783282,21.3882612 81.912388,21.0996695 81.695941,20.8543629 C81.479494,20.6090563 81.2125467,20.4142569 80.8950911,20.2699589 C80.5776355,20.1256609 80.2168959,20.053513 79.8128615,20.053513 C79.4376866,20.053513 79.0913766,20.123256 78.773921,20.262744 C78.4564654,20.4022321 78.1823033,20.5946266 77.9514265,20.8399332 C77.7205497,21.0852398 77.5401799,21.3738314 77.4103117,21.7057169 C77.2804435,22.0376023 77.2155104,22.3959369 77.2155104,22.7807316 C77.2155104,23.1655263 77.2804435,23.5238609 77.4103117,23.8557463 C77.5401799,24.1876318 77.7205497,24.4738185 77.9514265,24.7143152 C78.1823033,24.9548118 78.4564654,25.1448014 78.773921,25.2842894 C79.0913766,25.4237775 79.4376866,25.4935205 79.8128615,25.4935205 C80.2168959,25.4935205 80.5776355,25.4237775 80.8950911,25.2842894 C81.2125467,25.1448014 81.479494,24.9524069 81.695941,24.7071003 C81.912388,24.4617937 82.0783282,24.173202 82.1937666,23.8413166 C82.309205,23.5094312 82.3669233,23.1559064 82.3669233,22.7807316 Z M87.7164306,25.1039178 L87.74529,25.1039178 L89.8376006,19.4041752 L90.9054005,19.4041752 L87.5432738,27.9032851 C87.3412566,28.4227579 87.083929,28.8388109 86.7712834,29.1514566 C86.4586377,29.4641023 86.0089157,29.6204228 85.4221038,29.6204228 C85.1238879,29.6204228 84.8304864,29.5915636 84.5418904,29.5338444 L84.6428985,28.6392012 C84.8737753,28.7161602 85.1142683,28.7546391 85.3643849,28.7546391 C85.7010802,28.7546391 85.9656226,28.651227 86.1580199,28.4443999 C86.3504173,28.2375728 86.5187624,27.9417663 86.6630604,27.5569716 L87.2113901,26.1428583 L84.3254444,19.4041752 L85.4221038,19.4041752 L87.7164306,25.1039178 Z" id="supported-by" fill="#FFFFFE"></path>
                <path d="M98.416666,5.64054374 L98.416666,31.5285861" id="Stroke-8" stroke="#FFFFFE"></path>
            </g>
        </g>
    </g>
</svg>